{"glyphs":{"0":{"ha":1057,"x_min":84,"x_max":1013,"o":"m 431 997 q 441 985 438 993 q 445 971 445 978 q 445 883 445 933 q 445 804 445 833 q 439 787 445 795 q 425 774 434 779 q 327 665 347 739 q 307 500 307 591 q 327 335 307 410 q 425 227 347 262 q 439 214 434 222 q 445 197 445 206 q 445 118 445 168 q 445 30 445 68 q 441 16 445 23 q 431 4 438 8 q 418 -3 426 -1 q 412 -3 415 -3 q 403 -1 407 -3 q 161 184 240 46 q 84 500 84 323 q 161 817 84 678 q 403 1002 240 955 q 418 1004 410 1005 q 431 997 426 1002 m 696 1002 q 936 817 859 955 q 1013 500 1013 678 q 936 184 1013 323 q 696 -1 859 46 q 681 -3 688 -4 q 666 4 673 -1 q 656 16 661 8 q 654 30 654 23 q 654 118 654 68 q 654 197 654 168 q 659 214 654 206 q 673 227 665 222 q 772 336 751 262 q 791 500 791 410 q 772 665 791 591 q 673 774 751 739 q 659 787 665 779 q 654 804 654 795 q 654 883 654 833 q 654 971 654 933 q 656 985 654 978 q 666 997 661 993 q 681 1004 673 1002 q 686 1004 684 1004 q 696 1002 690 1004 z "},"1":{"ha":491,"x_min":57,"x_max":407,"o":"m 378 1000 q 399 991 391 1000 q 407 971 407 983 q 407 28 407 656 q 399 8 407 16 q 378 0 391 0 q 206 0 321 0 q 187 8 195 0 q 178 28 178 16 q 178 810 178 289 q 170 829 178 821 q 149 838 161 838 q 85 838 127 838 q 65 846 73 838 q 57 867 57 854 q 57 971 57 901 q 65 991 57 983 q 85 1000 73 1000 q 232 1000 159 1000 q 378 1000 305 1000 z "},"2":{"ha":994,"x_min":84,"x_max":951,"o":"m 898 792 q 902 617 928 705 q 803 464 876 529 q 685 381 751 419 q 525 307 617 343 q 387 183 433 271 q 319 0 339 95 q 84 0 240 0 q 138 197 100 95 q 245 380 175 297 q 331 461 282 425 q 442 521 380 496 q 583 587 536 557 q 651 636 629 617 q 678 670 666 650 q 681 716 689 690 q 665 742 677 728 q 635 764 654 754 q 635 1000 635 842 q 798 930 727 986 q 898 792 868 875 m 921 229 q 941 221 933 229 q 951 201 951 212 q 951 30 951 144 q 941 8 951 18 q 921 0 933 0 q 547 0 796 0 q 522 14 530 0 q 521 43 513 28 q 563 103 538 77 q 620 144 587 130 q 705 179 666 161 q 781 217 746 198 q 803 227 792 224 q 826 229 815 229 q 873 229 850 229 q 921 229 898 229 m 406 967 q 406 814 406 916 q 400 798 406 804 q 385 787 395 789 q 321 751 351 773 q 267 704 292 731 q 247 693 259 694 q 225 701 235 693 q 117 798 190 734 q 107 819 107 806 q 115 841 107 831 q 229 936 164 897 q 369 996 294 977 q 393 990 382 1000 q 406 967 406 982 z "},"3":{"ha":1013,"x_min":83,"x_max":971,"o":"m 387 184 q 387 30 387 133 q 376 5 387 15 q 358 0 368 0 q 350 0 354 -1 q 208 61 274 20 q 92 159 142 102 q 84 179 84 167 q 84 180 84 179 q 94 201 84 193 q 205 300 130 233 q 227 307 213 308 q 247 297 239 307 q 301 248 271 269 q 366 213 332 227 q 381 202 376 209 q 387 184 387 194 m 864 483 q 945 391 916 446 q 971 275 971 340 q 971 260 971 267 q 871 73 966 136 q 652 1 774 11 q 629 9 639 0 q 620 31 620 18 q 620 178 620 80 q 628 198 620 190 q 648 208 636 206 q 708 228 686 212 q 731 290 731 245 q 709 357 731 338 q 646 378 688 377 q 627 378 639 378 q 609 378 616 378 q 434 378 551 378 q 412 387 422 378 q 404 408 404 395 q 404 533 404 450 q 404 537 404 536 q 406 540 406 538 q 416 555 408 549 q 434 562 425 562 q 612 562 494 562 q 699 594 662 562 q 734 681 734 628 q 709 754 734 726 q 646 792 684 783 q 628 803 635 795 q 621 822 621 811 q 621 970 621 871 q 631 993 621 983 q 651 1000 640 1000 q 655 1000 654 1000 q 856 906 773 983 q 945 708 940 829 q 926 583 948 640 q 864 483 905 526 m 387 954 q 387 799 387 902 q 381 781 387 789 q 366 770 376 774 q 301 735 332 757 q 247 686 271 713 q 227 675 239 677 q 205 684 213 675 q 94 783 167 716 q 84 803 84 791 q 92 825 83 815 q 208 922 142 882 q 350 983 274 963 q 376 978 363 986 q 387 954 387 968 z "},"4":{"ha":1040,"x_min":84,"x_max":998,"o":"m 970 500 q 990 491 982 500 q 998 472 998 483 q 998 300 998 414 q 990 279 998 288 q 970 271 982 271 q 861 271 933 271 q 861 28 861 190 q 853 8 861 16 q 833 0 845 0 q 662 0 776 0 q 642 8 650 0 q 633 28 633 16 q 633 971 633 343 q 642 991 633 983 q 662 1000 650 1000 q 833 1000 719 1000 q 853 991 845 1000 q 861 971 861 983 q 861 500 861 814 q 916 500 888 500 q 970 500 943 500 m 368 784 q 397 787 381 795 q 414 760 414 779 q 414 301 414 608 q 406 279 414 289 q 385 271 397 271 q 111 271 294 271 q 92 279 100 271 q 84 300 84 288 q 84 557 84 387 q 87 571 84 566 q 96 582 91 578 q 232 684 164 632 q 368 784 300 734 z "},"5":{"ha":1027,"x_min":84,"x_max":986,"o":"m 381 182 q 381 30 381 130 q 369 7 381 15 q 353 0 361 0 q 345 1 349 0 q 205 60 270 20 q 91 156 141 100 q 84 176 84 164 q 84 178 84 176 q 94 198 84 190 q 202 294 130 231 q 224 301 210 302 q 243 292 236 301 q 297 244 267 264 q 361 209 327 222 q 376 198 370 206 q 381 182 381 191 m 636 640 q 802 640 692 640 q 825 636 814 640 q 845 624 836 632 q 920 543 872 601 q 977 426 967 484 q 986 340 986 380 q 975 258 986 294 q 914 140 955 187 q 857 85 888 109 q 795 47 826 64 q 692 11 736 19 q 646 1 646 1 q 637 1 643 1 q 617 9 625 1 q 608 31 608 19 q 608 202 608 88 q 614 221 608 213 q 633 232 623 231 q 711 260 665 236 q 750 354 757 285 q 707 445 743 419 q 632 477 671 471 q 614 487 623 479 q 608 506 608 495 q 608 612 608 541 q 616 632 608 624 q 636 640 624 640 m 922 1000 q 943 991 935 1000 q 951 971 951 983 q 951 800 951 914 q 943 780 951 788 q 922 772 935 772 q 381 772 742 772 q 381 481 381 674 q 347 481 362 481 q 319 483 331 481 q 232 514 270 488 q 174 581 194 538 q 160 617 165 598 q 155 658 156 637 q 153 658 155 658 q 153 682 153 666 q 153 682 153 682 q 153 682 153 682 q 153 918 153 761 q 153 918 153 918 q 153 971 153 936 q 163 991 153 983 q 183 1000 171 1000 q 552 1000 368 1000 q 922 1000 738 1000 z "},"6":{"ha":1016,"x_min":84,"x_max":975,"o":"m 453 780 q 332 667 378 742 q 285 500 285 593 q 332 332 285 408 q 453 220 378 258 q 465 209 460 216 q 469 193 469 201 q 469 30 469 138 q 457 5 469 15 q 441 0 450 0 q 431 1 437 0 q 182 189 281 52 q 84 500 84 324 q 182 811 84 675 q 431 998 281 948 q 441 1000 437 1000 q 457 994 450 1000 q 469 970 469 985 q 469 807 469 916 q 465 791 469 799 q 453 780 460 784 m 556 382 q 536 391 544 382 q 526 411 526 399 q 526 557 526 460 q 536 579 526 570 q 556 587 544 587 q 652 587 587 587 q 886 510 791 587 q 975 308 975 437 q 974 290 975 300 q 891 98 968 174 q 703 5 812 23 q 680 12 690 3 q 670 34 670 20 q 670 178 670 81 q 677 197 670 189 q 694 206 684 205 q 749 231 727 212 q 770 290 770 250 q 736 362 770 342 q 655 382 704 382 q 605 382 629 382 q 556 382 581 382 m 670 804 q 670 956 670 854 q 681 979 670 971 q 707 985 693 989 q 844 926 780 966 q 955 830 906 886 q 963 808 963 821 q 954 788 963 796 q 846 692 918 755 q 826 684 838 684 q 806 694 814 685 q 753 742 783 722 q 689 777 723 764 q 675 788 681 780 q 670 804 670 795 z "},"7":{"ha":1013,"x_min":84,"x_max":971,"o":"m 388 0 q 363 14 372 0 q 359 41 354 26 q 731 982 484 354 q 742 996 735 990 q 760 1000 750 1000 q 941 1000 819 1000 q 966 987 958 1000 q 971 971 971 979 q 968 960 971 966 q 597 19 845 646 q 586 5 594 11 q 570 0 579 0 q 479 0 524 0 q 388 0 433 0 m 129 772 q 98 780 110 772 q 84 800 84 788 q 84 971 84 857 q 98 991 84 983 q 129 1000 110 1000 q 449 1000 236 1000 q 473 987 465 1000 q 476 960 483 975 q 408 789 453 903 q 397 777 404 781 q 380 772 389 772 q 255 772 317 772 q 129 772 191 772 z "},"8":{"ha":1029,"x_min":62,"x_max":997,"o":"m 90 708 q 178 906 95 829 q 380 1000 262 983 q 384 1000 381 1000 q 403 993 395 1001 q 414 970 414 983 q 414 822 414 921 q 407 803 414 811 q 389 792 400 795 q 326 754 351 783 q 300 681 300 726 q 336 608 300 628 q 423 587 372 587 q 437 587 427 587 q 454 581 446 587 q 465 566 463 575 q 467 563 465 564 q 467 559 467 562 q 467 433 467 517 q 457 412 467 420 q 437 403 449 403 q 426 403 433 403 q 407 403 419 403 q 389 403 396 403 q 326 369 347 403 q 304 290 304 336 q 326 228 304 244 q 387 206 349 210 q 407 197 399 206 q 415 176 415 189 q 415 30 415 127 q 406 8 415 18 q 385 0 396 0 q 382 0 384 0 q 164 72 259 9 q 62 259 69 134 q 62 274 62 267 q 88 391 62 339 q 170 483 118 446 q 107 583 129 526 q 90 708 85 640 m 890 483 q 970 391 940 446 q 996 274 997 339 q 996 259 996 267 q 895 72 990 134 q 677 0 799 9 q 654 8 663 -1 q 644 30 644 18 q 644 176 644 79 q 652 197 644 189 q 671 206 661 206 q 732 228 709 210 q 755 290 755 244 q 734 369 755 336 q 670 403 712 403 q 651 403 663 403 q 632 403 640 403 q 623 403 629 403 q 601 412 609 403 q 593 433 593 420 q 593 559 593 475 q 593 563 593 562 q 594 566 593 564 q 605 581 597 575 q 623 587 612 587 q 636 587 627 587 q 723 608 686 587 q 758 681 758 628 q 732 754 758 726 q 669 792 708 783 q 652 803 659 795 q 644 822 644 811 q 644 970 644 871 q 655 993 644 983 q 680 1000 666 1002 q 880 906 796 985 q 970 708 964 829 q 951 583 972 640 q 890 483 929 526 z "},"9":{"ha":1016,"x_min":84,"x_max":974,"o":"m 606 220 q 726 332 680 258 q 773 499 773 407 q 727 666 773 591 q 606 779 680 741 q 594 789 598 783 q 589 806 589 798 q 589 967 589 860 q 601 991 589 983 q 617 998 609 998 q 627 997 623 998 q 876 810 777 947 q 974 499 974 674 q 876 189 974 324 q 627 1 777 52 q 617 0 623 0 q 601 5 609 0 q 589 30 589 15 q 589 193 589 84 q 594 208 589 201 q 606 220 598 216 m 389 195 q 389 43 389 145 q 377 20 389 28 q 353 15 366 11 q 216 73 279 34 q 104 170 153 114 q 96 191 96 179 q 106 212 98 203 q 213 308 141 244 q 233 315 221 316 q 254 305 245 315 q 307 256 277 278 q 369 222 336 236 q 384 212 378 220 q 389 195 389 205 m 503 617 q 524 608 515 617 q 532 587 532 600 q 532 441 532 538 q 524 420 532 429 q 503 412 515 412 q 407 412 471 412 q 174 490 269 412 q 84 690 84 562 q 85 708 84 700 q 168 901 91 825 q 357 993 245 975 q 378 986 369 996 q 389 964 389 978 q 389 821 389 917 q 382 802 389 810 q 365 792 376 793 q 311 768 332 787 q 289 708 289 749 q 321 636 289 656 q 404 617 355 617 q 453 617 429 617 q 503 617 479 617 z "},"\u0000":{"ha":0,"x_min":0,"x_max":0,"o":""},"\r":{"ha":0,"x_min":0,"x_max":0,"o":""}," ":{"ha":374,"x_min":0,"x_max":0,"o":""},"!":{"ha":397,"x_min":84,"x_max":313,"o":"m 84 136 q 94 156 84 148 q 114 165 102 165 q 283 165 171 165 q 304 156 296 165 q 313 136 313 148 q 313 28 313 100 q 305 8 313 18 q 283 0 296 0 q 114 0 228 0 q 94 8 102 0 q 84 28 84 18 q 84 83 84 56 q 84 136 84 109 m 313 290 q 304 270 313 278 q 283 262 296 262 q 114 262 227 262 q 94 270 102 262 q 84 290 84 278 q 84 971 84 518 q 94 991 84 983 q 114 1000 102 1000 q 283 1000 171 1000 q 305 991 296 1000 q 313 971 313 983 q 313 631 313 802 q 313 290 313 461 z "},"\"":{"ha":700,"x_min":98,"x_max":685,"o":"m 122 985 q 156 1066 122 1032 q 237 1100 190 1100 q 319 1066 285 1100 q 353 985 353 1032 q 319 878 355 935 q 218 799 282 819 q 182 788 199 792 q 142 783 164 784 q 127 783 138 783 q 106 783 117 783 q 100 785 103 784 q 98 791 99 788 q 98 793 98 792 q 98 796 98 795 q 100 802 99 799 q 151 861 141 833 q 140 924 160 890 q 126 952 132 937 q 122 985 122 967 m 454 983 q 487 1065 454 1031 q 570 1099 521 1099 q 651 1065 617 1099 q 685 983 685 1031 q 685 977 685 981 q 650 876 685 930 q 551 799 613 819 q 513 788 532 792 q 475 781 495 783 q 469 781 473 781 q 460 781 465 781 q 438 783 449 783 q 433 785 435 783 q 429 789 430 787 q 429 796 429 793 q 433 800 430 799 q 483 860 473 831 q 471 922 491 888 q 458 951 463 936 q 454 983 454 967 z "},"#":{"ha":1246,"x_min":84,"x_max":1206,"o":"m 245 585 q 231 585 239 585 q 217 585 224 585 q 202 587 209 585 q 190 597 195 591 q 184 612 186 604 q 184 627 182 618 q 208 711 194 662 q 228 788 220 760 q 240 806 231 799 q 260 812 250 812 q 293 812 275 812 q 326 812 311 812 q 346 819 336 812 q 358 837 354 826 q 376 906 365 864 q 395 975 388 948 q 407 993 397 986 q 427 1000 415 1000 q 507 1000 457 1000 q 594 1000 557 1000 q 609 997 602 1000 q 621 987 616 993 q 628 974 625 981 q 627 958 629 966 q 609 891 620 932 q 583 799 598 850 q 528 589 559 705 q 465 362 495 472 q 410 156 435 248 q 374 24 385 65 q 362 7 372 14 q 342 0 354 0 q 175 0 286 0 q 160 4 167 0 q 148 14 153 7 q 142 27 144 19 q 142 42 141 34 q 160 109 151 71 q 178 174 171 145 q 179 189 180 182 q 172 203 178 197 q 160 213 168 209 q 146 216 153 216 q 117 216 136 216 q 102 220 110 216 q 91 229 95 222 q 84 243 85 235 q 84 250 84 247 q 85 258 84 254 q 107 342 95 293 q 129 420 121 391 q 141 438 132 431 q 161 445 149 445 q 193 445 175 445 q 225 445 212 445 q 245 452 237 445 q 258 469 255 458 q 267 505 262 484 q 278 543 273 525 q 278 557 279 549 q 271 571 277 566 q 260 581 267 578 q 245 585 254 585 m 1043 445 q 1058 445 1051 445 q 1073 445 1065 445 q 1088 441 1080 445 q 1099 431 1095 438 q 1105 418 1104 426 q 1104 403 1107 410 q 1082 319 1095 366 q 1061 240 1069 270 q 1048 222 1058 229 q 1028 216 1040 216 q 996 216 1015 216 q 964 216 978 216 q 944 209 952 216 q 932 191 935 202 q 909 109 924 160 q 887 24 895 56 q 875 7 883 14 q 854 0 865 0 q 686 0 799 0 q 671 4 678 0 q 661 14 665 7 q 654 27 655 19 q 654 42 652 34 q 673 109 662 71 q 690 174 682 145 q 690 189 692 182 q 685 203 689 197 q 673 213 680 209 q 658 216 666 216 q 625 216 643 216 q 594 216 609 216 q 579 220 586 216 q 567 229 572 222 q 562 243 563 235 q 562 258 560 251 q 585 342 571 293 q 605 420 598 391 q 617 438 609 431 q 637 445 627 445 q 688 445 658 445 q 738 445 716 445 q 758 452 749 445 q 770 469 766 458 q 780 505 774 484 q 789 543 785 525 q 791 557 792 549 q 784 571 788 566 q 772 581 779 578 q 757 585 765 585 q 726 585 742 585 q 693 585 708 585 q 678 587 685 585 q 667 597 671 591 q 661 612 662 604 q 661 627 659 618 q 684 711 671 662 q 705 788 697 760 q 718 806 708 799 q 736 812 726 812 q 787 812 758 812 q 837 812 817 812 q 857 819 849 812 q 869 837 867 826 q 888 906 876 864 q 907 975 899 948 q 918 993 910 986 q 939 1000 928 1000 q 1020 1000 968 1000 q 1107 1000 1070 1000 q 1122 997 1115 1000 q 1133 987 1128 993 q 1139 974 1138 981 q 1139 958 1141 966 q 1124 906 1133 935 q 1111 854 1118 878 q 1111 840 1109 848 q 1116 826 1112 833 q 1128 817 1122 819 q 1143 812 1135 812 q 1157 812 1150 812 q 1172 812 1165 812 q 1187 810 1180 812 q 1199 800 1194 806 q 1204 785 1203 793 q 1206 779 1206 783 q 1204 770 1206 774 q 1181 686 1195 735 q 1160 609 1168 637 q 1149 591 1157 598 q 1128 585 1139 585 q 1096 585 1114 585 q 1063 585 1078 585 q 1043 578 1053 585 q 1031 560 1034 571 q 1021 525 1027 544 q 1012 487 1016 505 q 1010 472 1009 479 q 1017 457 1012 464 q 1028 448 1021 452 q 1043 445 1036 445 z "},"$":{"ha":978,"x_min":42,"x_max":949,"o":"m 534 -24 q 556 -33 547 -24 q 564 -54 564 -42 q 564 -113 564 -73 q 556 -134 564 -125 q 534 -142 547 -142 q 429 -142 499 -142 q 408 -134 416 -142 q 399 -113 399 -125 q 399 -54 399 -94 q 408 -33 399 -42 q 429 -24 416 -24 q 481 -24 456 -24 q 534 -24 509 -24 m 604 -4 q 582 4 591 -4 q 574 26 574 14 q 574 197 574 83 q 582 217 574 209 q 604 225 591 225 q 643 225 616 225 q 692 243 670 225 q 719 285 713 259 q 703 349 726 321 q 646 376 680 376 q 639 376 643 376 q 342 393 540 381 q 254 408 296 395 q 175 446 212 422 q 72 566 109 491 q 42 696 42 627 q 43 728 42 712 q 145 925 54 846 q 355 1002 236 1002 q 372 1002 361 1002 q 392 994 384 1002 q 400 974 400 986 q 400 803 400 917 q 392 781 400 791 q 372 773 384 773 q 349 773 363 773 q 300 757 321 773 q 273 713 278 739 q 289 650 266 677 q 346 624 312 624 q 353 623 349 624 q 650 605 452 617 q 806 559 735 604 q 914 444 876 514 q 944 361 935 406 q 949 301 949 332 q 948 270 949 285 q 846 73 937 152 q 636 -4 755 -4 q 620 -4 628 -4 q 604 -4 612 -4 m 362 -1 q 222 57 288 18 q 109 153 159 98 q 100 175 100 163 q 110 195 102 187 q 220 293 146 228 q 240 300 228 301 q 260 290 252 300 q 315 241 285 263 q 380 208 345 221 q 393 197 388 203 q 399 179 399 189 q 399 27 399 129 q 388 3 399 12 q 362 -1 376 -5 m 610 1001 q 750 941 685 982 q 864 845 815 901 q 872 823 872 836 q 863 803 872 811 q 754 705 826 770 q 732 699 745 697 q 712 708 720 699 q 658 757 688 735 q 593 791 628 777 q 579 802 585 795 q 574 819 574 810 q 574 972 574 869 q 585 996 574 986 q 610 1001 597 1004 m 534 1127 q 556 1119 547 1127 q 564 1097 564 1111 q 564 1039 564 1078 q 556 1019 564 1027 q 534 1009 547 1009 q 429 1009 499 1009 q 408 1019 416 1009 q 399 1039 399 1027 q 399 1097 399 1059 q 408 1119 399 1111 q 429 1127 416 1127 q 481 1127 456 1127 q 534 1127 509 1127 z "},"%":{"ha":1082,"x_min":84,"x_max":998,"o":"m 715 986 q 726 997 719 993 q 741 1000 732 1000 q 940 1000 807 1000 q 966 985 958 1000 q 966 955 974 970 q 373 14 768 642 q 363 4 369 7 q 349 0 357 0 q 149 0 282 0 q 123 15 132 0 q 123 45 114 30 q 419 515 271 281 q 715 986 567 751 m 825 0 q 701 52 751 0 q 650 174 650 102 q 701 297 650 245 q 825 347 751 347 q 947 297 897 347 q 998 174 998 245 q 947 52 998 102 q 825 0 897 0 m 258 652 q 136 704 186 652 q 84 826 84 754 q 136 949 84 898 q 258 1000 186 1000 q 381 949 331 1000 q 433 826 433 898 q 381 704 433 754 q 258 652 331 652 z "},"&":{"ha":974,"x_min":83,"x_max":972,"o":"m 316 305 q 321 292 320 298 q 321 278 323 285 q 317 271 321 278 q 313 256 315 264 q 323 239 313 247 q 340 229 331 232 q 346 229 343 229 q 353 231 350 229 q 369 228 361 232 q 381 218 376 225 q 487 75 416 171 q 492 49 496 62 q 475 28 488 34 q 407 8 441 16 q 340 0 373 0 q 316 1 328 0 q 294 4 305 3 q 161 77 218 20 q 90 209 104 133 q 83 266 83 237 q 91 328 83 297 q 142 433 104 387 q 153 445 148 439 q 163 454 157 450 q 186 463 172 464 q 208 452 199 463 q 262 378 235 415 q 316 305 289 342 m 970 19 q 972 11 972 15 q 971 7 972 9 q 960 0 967 0 q 718 0 879 0 q 704 3 709 0 q 693 12 697 7 q 328 530 571 186 q 229 667 294 576 q 201 724 212 699 q 187 773 190 751 q 194 859 182 818 q 239 930 208 899 q 321 982 274 966 q 419 1005 370 1000 q 442 997 431 1006 q 452 975 452 987 q 444 780 449 910 q 444 770 442 774 q 448 761 445 765 q 467 732 456 749 q 487 703 477 716 q 487 704 487 704 q 704 396 559 601 q 814 461 741 418 q 837 464 825 467 q 854 450 848 461 q 940 302 883 401 q 943 281 947 292 q 929 262 940 269 q 837 208 898 244 q 903 114 869 160 q 970 19 936 66 m 648 757 q 656 773 654 764 q 659 791 659 781 q 656 975 658 852 q 667 998 656 990 q 685 1005 675 1005 q 693 1004 689 1005 q 806 954 745 990 q 888 844 865 917 q 872 682 916 757 q 780 562 827 608 q 757 552 770 552 q 736 564 745 553 q 632 704 701 610 q 627 723 627 712 q 635 742 628 734 q 642 750 639 746 q 648 757 646 753 z "},"'":{"ha":339,"x_min":42,"x_max":297,"o":"m 66 983 q 100 1065 66 1031 q 182 1099 134 1099 q 263 1065 231 1099 q 297 983 297 1031 q 297 977 297 979 q 263 876 297 930 q 164 799 227 819 q 126 788 144 792 q 88 781 109 783 q 83 781 85 781 q 72 781 79 781 q 52 783 62 783 q 45 785 47 783 q 42 789 43 787 q 42 793 42 791 q 42 796 42 795 q 46 800 43 799 q 95 860 85 831 q 84 922 104 888 q 71 951 76 936 q 66 983 66 967 z "},"(":{"ha":557,"x_min":84,"x_max":515,"o":"m 346 1158 q 509 998 400 1105 q 454 932 503 991 q 366 769 407 872 q 328 648 343 715 q 313 507 313 583 q 358 269 315 397 q 515 3 403 141 q 338 -142 456 -46 q 134 213 189 42 q 84 506 84 369 q 85 533 84 519 q 155 852 92 713 q 274 1069 218 990 q 324 1134 304 1111 q 346 1158 345 1157 z "},")":{"ha":557,"x_min":43,"x_max":473,"o":"m 220 -142 q 43 3 161 -95 q 199 269 156 141 q 244 507 244 397 q 199 753 244 646 q 110 922 153 860 q 69 975 87 956 q 50 998 53 994 q 213 1158 104 1051 q 235 1134 214 1157 q 285 1069 255 1111 q 403 852 340 990 q 473 533 467 713 q 473 506 473 519 q 425 213 473 369 q 220 -142 370 42 z "},"*":{"ha":779,"x_min":79,"x_max":712,"o":"m 697 693 q 709 680 705 688 q 709 665 712 671 q 652 566 690 632 q 639 559 648 559 q 621 562 629 557 q 95 865 446 663 q 83 879 85 871 q 81 887 81 884 q 83 895 81 891 q 140 993 102 928 q 153 1001 144 1000 q 171 997 161 1002 q 434 845 302 921 q 697 693 566 769 m 320 1084 q 326 1101 320 1093 q 339 1108 331 1108 q 453 1108 377 1108 q 467 1101 461 1108 q 472 1084 472 1093 q 472 476 472 882 q 467 458 472 465 q 453 452 461 452 q 339 452 415 452 q 326 458 331 452 q 320 476 320 465 q 320 780 320 628 q 320 1084 320 932 m 621 997 q 639 1001 631 1002 q 652 993 648 1000 q 709 895 671 960 q 711 887 711 891 q 709 879 711 884 q 697 865 705 871 q 171 562 522 765 q 153 559 161 557 q 140 566 144 559 q 83 665 121 600 q 83 680 79 671 q 95 693 85 688 q 358 845 227 769 q 621 997 490 921 z "},"+":{"ha":849,"x_min":84,"x_max":806,"o":"m 334 836 q 342 854 334 846 q 361 863 350 863 q 528 863 416 863 q 548 854 540 863 q 556 836 556 846 q 556 613 556 761 q 779 613 631 613 q 798 605 789 613 q 806 585 806 597 q 806 418 806 529 q 798 399 806 407 q 779 391 789 391 q 556 391 704 391 q 556 167 556 316 q 548 148 556 156 q 528 140 540 140 q 361 140 472 140 q 342 148 350 140 q 334 167 334 156 q 334 391 334 241 q 110 391 259 391 q 91 399 99 391 q 84 418 84 407 q 84 585 84 473 q 91 605 84 597 q 110 613 99 613 q 334 613 184 613 q 334 724 334 669 q 334 836 334 780 z "},",":{"ha":340,"x_min":42,"x_max":298,"o":"m 68 121 q 102 202 68 168 q 183 236 136 236 q 264 202 231 236 q 298 121 298 168 q 298 114 298 118 q 264 14 298 68 q 164 -64 227 -43 q 127 -75 145 -71 q 88 -81 110 -80 q 84 -81 87 -81 q 73 -81 80 -81 q 52 -80 62 -80 q 46 -77 49 -80 q 43 -73 43 -76 q 42 -69 42 -72 q 43 -66 42 -68 q 46 -62 43 -64 q 96 -3 87 -31 q 85 60 106 26 q 72 88 76 73 q 68 121 68 104 z "},"-":{"ha":800,"x_min":167,"x_max":633,"o":"m 194 388 q 175 396 183 388 q 167 415 167 404 q 167 582 167 471 q 175 602 167 594 q 194 610 183 610 q 606 610 331 610 q 625 602 618 610 q 633 582 633 594 q 633 415 633 526 q 625 396 633 404 q 606 388 618 388 q 400 388 503 388 q 194 388 297 388 z "},".":{"ha":309,"x_min":43,"x_max":267,"o":"m 235 34 q 198 9 218 19 q 155 1 176 1 q 113 9 133 1 q 76 34 91 19 q 52 71 61 49 q 43 113 43 92 q 52 156 43 134 q 76 193 61 178 q 113 217 91 208 q 155 225 133 225 q 198 217 176 225 q 235 193 218 208 q 258 156 250 178 q 267 113 267 134 q 258 71 267 92 q 235 34 250 49 z "},"/":{"ha":739,"x_min":84,"x_max":697,"o":"m 114 0 q 90 14 98 0 q 84 28 84 20 q 85 41 84 34 q 457 982 210 354 q 468 996 461 990 q 486 1000 476 1000 q 667 1000 545 1000 q 692 987 684 1000 q 697 971 697 979 q 694 960 697 966 q 323 19 571 646 q 312 5 320 11 q 296 0 305 0 q 205 0 250 0 q 114 0 159 0 z "},":":{"ha":309,"x_min":43,"x_max":267,"o":"m 235 34 q 198 9 218 19 q 155 1 176 1 q 113 9 133 1 q 76 34 91 19 q 52 71 61 49 q 43 113 43 92 q 52 156 43 134 q 76 193 61 178 q 113 217 91 208 q 155 225 133 225 q 198 217 176 225 q 235 193 218 208 q 258 156 250 178 q 267 113 267 134 q 258 71 267 92 q 235 34 250 49 m 235 532 q 198 507 218 517 q 155 499 176 499 q 113 507 133 499 q 76 532 91 517 q 52 568 61 547 q 43 610 43 590 q 52 654 43 632 q 76 690 61 675 q 113 713 91 705 q 155 723 133 723 q 198 713 176 723 q 235 690 218 705 q 258 654 250 675 q 267 610 267 632 q 258 568 267 590 q 235 532 250 547 z "},";":{"ha":309,"x_min":16,"x_max":271,"o":"m 232 530 q 195 506 217 515 q 153 498 174 498 q 110 506 132 498 q 73 530 88 515 q 50 567 58 545 q 41 609 41 587 q 50 652 41 631 q 73 689 58 673 q 110 712 88 704 q 153 722 132 722 q 195 712 174 722 q 232 689 217 704 q 256 652 247 673 q 264 609 264 631 q 256 567 264 587 q 232 530 247 545 m 41 75 q 75 157 41 123 q 156 191 109 191 q 237 157 203 191 q 271 75 271 123 q 271 68 271 72 q 237 -31 271 22 q 137 -110 201 -90 q 100 -121 118 -117 q 61 -126 83 -126 q 57 -126 60 -126 q 46 -126 53 -127 q 24 -126 35 -126 q 19 -123 22 -125 q 16 -118 18 -122 q 16 -115 16 -117 q 16 -113 16 -114 q 19 -107 18 -110 q 69 -49 60 -77 q 58 15 79 -19 q 45 43 50 28 q 41 75 41 58 z "},"<":{"ha":830,"x_min":84,"x_max":789,"o":"m 787 689 q 780 678 784 684 q 769 671 776 674 q 659 620 731 652 q 522 557 587 587 q 446 522 479 537 q 401 502 412 507 q 400 500 400 502 q 399 498 399 499 q 476 463 412 492 q 610 401 538 434 q 700 359 656 380 q 769 328 743 340 q 780 320 776 326 q 787 309 784 316 q 788 297 789 304 q 785 283 788 290 q 753 213 773 255 q 720 142 734 171 q 703 125 715 130 q 690 123 696 123 q 677 126 684 123 q 521 198 628 149 q 312 294 415 245 q 187 351 244 326 q 103 389 130 377 q 88 401 94 393 q 84 420 84 410 q 84 499 84 449 q 84 579 84 551 q 88 597 84 589 q 103 609 94 605 q 187 648 130 623 q 312 705 244 674 q 521 802 415 753 q 677 873 628 850 q 690 876 684 876 q 703 873 696 876 q 720 856 715 869 q 753 785 734 827 q 785 715 773 743 q 788 703 788 709 q 789 701 789 701 q 787 689 789 694 z "},"=":{"ha":849,"x_min":84,"x_max":806,"o":"m 110 208 q 91 216 99 208 q 84 235 84 224 q 84 401 84 290 q 91 420 84 412 q 110 429 99 429 q 779 429 334 429 q 798 420 789 429 q 806 401 806 412 q 806 235 806 346 q 798 216 806 224 q 779 208 789 208 q 445 208 612 208 q 110 208 278 208 m 110 570 q 91 578 99 570 q 84 598 84 586 q 84 765 84 654 q 91 784 84 776 q 110 792 99 792 q 779 792 334 792 q 798 784 789 792 q 806 765 806 776 q 806 598 806 709 q 798 578 806 586 q 779 570 789 570 q 445 570 612 570 q 110 570 278 570 z "},">":{"ha":830,"x_min":83,"x_max":789,"o":"m 87 715 q 119 785 100 743 q 152 856 138 827 q 170 873 157 869 q 182 876 176 876 q 195 873 189 876 q 351 802 245 850 q 560 705 457 753 q 685 648 629 674 q 769 609 742 623 q 784 597 779 605 q 789 579 789 589 q 789 499 789 551 q 789 420 789 449 q 784 401 789 410 q 769 389 779 393 q 627 324 728 372 q 419 229 525 277 q 289 170 350 197 q 195 126 229 141 q 182 123 189 123 q 170 125 176 123 q 152 142 157 130 q 119 213 138 171 q 87 283 100 255 q 84 297 84 290 q 85 309 83 304 q 92 320 88 316 q 103 328 96 326 q 172 359 129 340 q 263 401 216 380 q 396 463 334 434 q 473 498 460 492 q 472 500 473 499 q 471 502 472 502 q 391 538 453 510 q 259 600 328 567 q 171 640 212 620 q 103 671 129 659 q 92 678 96 674 q 85 689 88 684 q 84 701 84 694 q 84 703 84 701 q 87 715 84 709 z "},"?":{"ha":838,"x_min":42,"x_max":811,"o":"m 372 134 q 380 156 372 146 q 401 164 389 164 q 567 164 457 164 q 589 156 579 164 q 597 134 597 146 q 597 28 597 99 q 589 8 597 16 q 568 0 581 0 q 400 0 513 0 q 380 8 388 0 q 372 28 372 16 q 372 81 372 56 q 372 134 372 109 m 597 298 q 586 273 597 283 q 559 260 575 260 q 410 260 509 260 q 382 273 393 260 q 372 298 372 283 q 372 361 372 320 q 427 502 377 444 q 517 589 479 560 q 553 616 529 598 q 570 652 571 628 q 564 699 568 677 q 544 753 562 720 q 499 793 528 785 q 486 804 491 796 q 481 821 481 812 q 486 972 483 872 q 496 993 487 985 q 518 1000 506 1002 q 705 906 621 986 q 807 727 791 826 q 811 675 811 701 q 788 562 810 617 q 686 431 755 483 q 650 404 674 422 q 648 403 650 403 q 610 357 624 385 q 597 298 597 330 m 334 971 q 334 818 334 920 q 328 802 334 810 q 315 791 324 795 q 252 757 281 777 q 199 708 222 735 q 179 699 191 699 q 157 705 167 697 q 52 802 122 738 q 42 823 42 811 q 42 825 42 823 q 49 845 42 836 q 161 940 98 901 q 298 1000 225 981 q 307 1001 302 1001 q 323 994 315 1000 q 334 971 334 985 z "},"@":{"ha":1093,"x_min":42,"x_max":1050,"o":"m 42 502 q 109 750 42 637 q 281 929 174 863 q 406 985 338 966 q 545 1005 472 1005 q 762 958 658 1005 q 940 826 867 910 q 1031 667 1004 754 q 1050 545 1050 606 q 1047 490 1050 518 q 982 320 1034 391 q 863 214 930 250 q 789 186 827 195 q 716 179 751 176 q 633 205 669 183 q 579 262 598 227 q 566 288 571 274 q 562 317 562 302 q 562 711 562 449 q 754 711 625 711 q 754 376 754 600 q 769 382 761 378 q 787 393 779 387 q 829 437 807 408 q 856 515 849 465 q 842 624 864 578 q 796 700 821 671 q 682 783 750 751 q 545 812 616 812 q 392 772 461 812 q 281 666 321 731 q 247 589 259 629 q 235 502 235 547 q 247 416 235 457 q 281 339 259 374 q 392 233 321 273 q 545 193 461 193 q 545 0 545 127 q 297 65 410 0 q 118 237 184 130 q 62 362 81 296 q 42 502 42 430 m 524 711 q 524 273 524 564 q 357 334 419 273 q 294 498 294 395 q 357 655 294 601 q 524 711 419 711 z "},"A":{"ha":1108,"x_min":43,"x_max":1088,"o":"m 709 387 q 678 467 697 418 q 636 571 658 515 q 549 785 594 675 q 481 955 506 895 q 480 971 479 962 q 486 986 480 979 q 496 997 490 993 q 513 1001 505 1001 q 601 1001 551 1001 q 681 1001 651 1001 q 699 994 690 1001 q 711 979 708 989 q 734 925 719 960 q 766 844 747 890 q 846 643 800 757 q 937 415 892 529 q 1024 199 983 300 q 1085 46 1065 99 q 1088 33 1088 39 q 1088 30 1088 31 q 1082 15 1086 22 q 1070 4 1078 8 q 1055 0 1063 0 q 966 0 1016 0 q 887 0 916 0 q 868 5 876 0 q 856 22 860 12 q 841 60 849 37 q 826 98 831 81 q 814 113 822 107 q 795 118 804 118 q 701 118 762 118 q 597 118 642 118 q 582 122 589 118 q 570 133 574 126 q 564 149 564 141 q 567 165 563 157 q 602 248 582 201 q 635 320 623 294 q 647 335 639 330 q 665 340 655 340 q 671 340 669 340 q 678 340 675 340 q 694 345 688 340 q 707 355 701 349 q 712 370 711 362 q 709 387 712 378 m 46 49 q 81 132 60 81 q 130 241 104 182 q 229 471 178 351 q 313 663 282 590 q 327 678 317 673 q 345 684 335 684 q 363 678 355 684 q 376 662 372 671 q 422 548 396 610 q 457 460 446 486 q 458 446 458 453 q 456 434 458 439 q 412 332 444 406 q 346 182 380 258 q 305 88 324 132 q 277 22 286 45 q 264 7 273 12 q 245 1 256 1 q 167 1 217 1 q 76 1 115 1 q 61 5 68 1 q 49 16 53 9 q 43 33 43 24 q 43 35 43 34 q 46 49 43 42 z "},"B":{"ha":1055,"x_min":84,"x_max":1015,"o":"m 548 208 q 726 208 608 208 q 757 214 742 208 q 783 235 772 221 q 792 248 788 240 q 800 264 798 256 q 807 277 802 271 q 819 283 812 282 q 875 307 860 298 q 894 317 890 316 q 928 339 911 327 q 958 362 944 351 q 974 369 964 368 q 991 366 983 370 q 1005 357 1000 363 q 1012 340 1010 350 q 1013 320 1013 330 q 1015 298 1015 309 q 1015 298 1015 298 q 994 190 1015 241 q 939 96 974 137 q 841 23 897 49 q 726 -1 785 -1 q 699 -1 726 -1 q 636 -1 671 -1 q 590 -1 613 -1 q 548 -1 566 -1 q 525 8 534 -1 q 515 33 515 18 q 515 103 515 61 q 515 174 515 145 q 525 198 515 187 q 548 208 534 208 m 118 1000 q 195 1000 149 1000 q 273 1000 241 1000 q 297 990 288 1000 q 307 966 307 979 q 307 830 307 922 q 307 627 307 738 q 307 506 307 568 q 307 382 307 444 q 307 174 307 269 q 307 33 307 79 q 297 9 307 19 q 273 -1 288 -1 q 195 -1 241 -1 q 118 -1 149 -1 q 94 9 103 -1 q 84 33 84 19 q 84 174 84 79 q 84 382 84 269 q 84 506 84 444 q 84 627 84 568 q 84 830 84 738 q 84 966 84 922 q 94 990 84 979 q 118 1000 103 1000 m 551 998 q 631 998 585 998 q 675 998 675 998 q 785 977 732 998 q 878 913 837 955 q 937 821 917 873 q 959 712 959 769 q 959 712 959 712 q 937 604 959 656 q 878 511 917 552 q 785 449 837 471 q 675 426 732 426 q 631 426 675 426 q 551 426 585 426 q 537 429 544 426 q 526 435 532 431 q 519 446 522 441 q 517 460 517 453 q 517 524 517 486 q 517 587 517 560 q 519 600 517 594 q 526 610 522 606 q 537 618 532 616 q 551 621 544 621 q 675 621 591 621 q 709 628 693 621 q 738 647 726 635 q 757 677 750 661 q 764 712 764 694 q 764 712 764 712 q 757 747 764 731 q 738 777 750 765 q 709 798 726 791 q 675 804 693 804 q 631 804 675 804 q 551 804 585 804 q 537 807 544 804 q 526 814 532 810 q 519 825 522 819 q 517 837 517 831 q 517 902 517 864 q 517 966 517 939 q 519 978 517 972 q 526 989 522 985 q 537 996 532 994 q 551 998 544 998 z "},"C":{"ha":1012,"x_min":46,"x_max":968,"o":"m 452 997 q 461 985 458 993 q 465 971 465 978 q 465 883 465 933 q 465 804 465 833 q 460 787 465 795 q 445 774 454 779 q 319 665 368 739 q 269 500 269 591 q 317 335 269 410 q 445 227 368 262 q 460 214 454 222 q 465 197 465 206 q 465 118 465 168 q 465 30 465 68 q 461 15 465 23 q 452 4 458 8 q 438 -3 446 -1 q 431 -3 434 -3 q 423 -1 427 -3 q 153 184 260 46 q 46 500 46 323 q 153 817 46 678 q 423 1002 260 955 q 438 1004 430 1005 q 452 997 446 1002 m 693 229 q 741 255 719 240 q 781 289 762 271 q 802 300 789 298 q 823 293 814 300 q 887 250 849 277 q 954 203 926 222 q 963 194 959 199 q 967 180 967 187 q 968 176 968 178 q 966 167 968 171 q 959 155 964 160 q 849 61 911 100 q 716 0 788 22 q 701 0 708 -1 q 686 5 693 1 q 677 18 681 11 q 674 33 674 24 q 674 119 674 69 q 674 198 674 170 q 680 217 674 209 q 693 229 685 225 m 686 1000 q 701 1005 693 1004 q 707 1006 704 1006 q 716 1005 711 1006 q 849 944 787 983 q 958 852 910 906 q 967 827 967 842 q 956 806 966 814 q 898 753 933 784 q 840 700 864 722 q 829 693 836 696 q 815 692 822 692 q 803 696 808 692 q 792 704 798 699 q 747 745 772 727 q 693 776 722 764 q 680 788 685 780 q 674 807 674 796 q 674 886 674 836 q 674 972 674 936 q 677 987 674 981 q 686 1000 681 994 z "},"D":{"ha":1101,"x_min":84,"x_max":1058,"o":"m 307 967 q 307 34 307 655 q 297 9 307 20 q 273 0 288 0 q 118 0 221 0 q 95 9 104 0 q 84 34 84 20 q 84 967 84 345 q 95 990 84 981 q 118 1000 104 1000 q 273 1000 170 1000 q 297 990 288 1000 q 307 967 307 981 m 536 998 q 793 937 677 998 q 981 770 911 875 q 1038 646 1017 713 q 1058 502 1058 578 q 1038 359 1058 427 q 981 233 1017 290 q 793 64 911 126 q 536 0 677 0 q 536 0 536 0 q 536 0 536 0 q 522 5 528 0 q 515 20 515 12 q 515 111 515 52 q 515 202 515 171 q 517 210 515 206 q 522 217 519 214 q 529 221 525 220 q 536 222 532 222 q 749 300 661 222 q 836 502 836 378 q 749 701 836 627 q 536 776 661 776 q 536 776 536 776 q 536 776 536 776 q 529 777 532 776 q 522 781 525 779 q 517 788 519 784 q 515 796 515 792 q 515 887 515 827 q 515 978 515 947 q 522 993 515 986 q 536 998 528 998 z "},"E":{"ha":1002,"x_min":84,"x_max":959,"o":"m 926 0 q 872 0 905 0 q 803 0 840 0 q 662 0 734 0 q 548 0 589 0 q 525 9 534 0 q 515 34 515 19 q 515 111 515 65 q 515 189 515 157 q 525 213 515 202 q 548 222 534 222 q 602 222 570 222 q 671 222 635 222 q 814 222 741 222 q 926 222 886 222 q 949 213 940 222 q 959 189 959 202 q 959 111 959 157 q 959 34 959 65 q 949 9 959 19 q 926 0 940 0 m 307 967 q 307 905 307 943 q 307 817 307 865 q 307 610 307 726 q 307 384 307 495 q 307 175 307 270 q 307 34 307 79 q 297 9 307 19 q 273 0 288 0 q 195 0 241 0 q 118 0 149 0 q 94 9 104 0 q 84 34 84 19 q 84 96 84 57 q 84 183 84 134 q 84 389 84 274 q 84 616 84 505 q 84 826 84 731 q 84 967 84 921 q 94 990 84 981 q 118 1000 104 1000 q 195 1000 149 1000 q 273 1000 241 1000 q 297 990 288 1000 q 307 967 307 981 m 871 389 q 823 389 852 389 q 765 389 796 389 q 646 389 707 389 q 548 389 585 389 q 536 392 541 389 q 525 399 529 395 q 518 410 519 403 q 515 422 515 415 q 515 500 515 454 q 515 578 515 547 q 518 590 515 585 q 525 601 519 597 q 536 609 529 606 q 548 612 541 612 q 595 612 567 612 q 654 612 623 612 q 773 612 712 612 q 871 612 834 612 q 883 609 878 612 q 894 601 890 606 q 902 590 899 597 q 903 578 903 585 q 903 500 903 547 q 903 422 903 454 q 902 410 903 415 q 894 399 899 403 q 883 392 890 395 q 871 389 878 389 m 926 779 q 872 779 905 779 q 803 779 840 779 q 662 779 734 779 q 548 779 589 779 q 525 788 534 779 q 515 811 515 798 q 515 890 515 842 q 515 967 515 936 q 525 990 515 981 q 548 1001 534 1001 q 602 1001 570 1001 q 671 1001 635 1001 q 814 1001 741 1001 q 926 1001 886 1001 q 949 990 940 1001 q 959 967 959 981 q 959 890 959 936 q 959 811 959 842 q 949 788 959 798 q 926 779 940 779 z "},"F":{"ha":1005,"x_min":84,"x_max":959,"o":"m 305 967 q 305 905 305 943 q 305 817 305 865 q 305 610 305 726 q 305 384 305 495 q 305 175 305 270 q 305 34 305 79 q 296 9 305 19 q 273 0 286 0 q 194 0 241 0 q 117 0 148 0 q 94 9 103 0 q 84 34 84 19 q 84 96 84 57 q 84 183 84 134 q 84 389 84 274 q 84 616 84 505 q 84 826 84 731 q 84 967 84 921 q 94 990 84 981 q 117 1000 103 1000 q 194 1000 148 1000 q 273 1000 241 1000 q 296 990 286 1000 q 305 967 305 981 m 867 403 q 821 403 848 403 q 761 403 793 403 q 642 403 703 403 q 545 403 581 403 q 532 406 538 403 q 521 412 526 408 q 514 423 517 418 q 511 437 511 430 q 511 514 511 468 q 511 591 511 560 q 514 605 511 598 q 521 616 517 610 q 532 623 526 620 q 545 625 538 625 q 591 625 564 625 q 651 625 618 625 q 770 625 709 625 q 867 625 831 625 q 880 623 873 625 q 891 616 886 620 q 898 605 895 610 q 901 591 901 598 q 901 514 901 560 q 901 437 901 468 q 898 423 901 430 q 891 412 895 418 q 880 406 886 408 q 867 403 873 403 m 926 779 q 872 779 905 779 q 803 779 840 779 q 661 779 734 779 q 548 779 587 779 q 524 788 533 779 q 514 811 514 798 q 514 890 514 842 q 514 967 514 936 q 524 990 514 981 q 548 1001 533 1001 q 601 1001 570 1001 q 671 1001 633 1001 q 812 1001 741 1001 q 926 1001 886 1001 q 949 990 940 1001 q 959 967 959 981 q 959 890 959 936 q 959 811 959 842 q 949 788 959 798 q 926 779 940 779 z "},"G":{"ha":1035,"x_min":42,"x_max":993,"o":"m 448 997 q 457 985 453 993 q 461 971 461 978 q 461 883 461 933 q 461 804 461 833 q 456 787 461 795 q 441 774 450 779 q 313 665 362 739 q 264 500 264 591 q 313 335 264 410 q 441 227 362 262 q 456 214 450 222 q 461 197 461 206 q 461 118 461 168 q 461 30 461 68 q 457 16 461 23 q 448 4 453 8 q 434 -3 441 -1 q 427 -3 430 -3 q 418 -1 422 -3 q 149 184 255 46 q 42 500 42 323 q 149 817 42 678 q 418 1002 255 955 q 434 1004 426 1005 q 448 997 441 1002 m 993 534 q 993 221 993 430 q 991 212 993 217 q 987 202 990 208 q 930 138 967 175 q 894 102 894 102 q 806 42 853 68 q 705 1 758 16 q 690 0 697 -1 q 677 7 682 1 q 666 18 670 11 q 663 33 663 24 q 663 119 663 69 q 663 198 663 170 q 669 217 663 209 q 682 229 674 225 q 723 251 704 239 q 760 279 742 263 q 768 290 765 283 q 770 304 770 297 q 770 328 770 313 q 770 357 770 343 q 761 380 770 370 q 736 389 750 389 q 694 389 718 389 q 652 389 671 389 q 629 400 639 389 q 620 423 620 410 q 620 479 620 448 q 620 534 620 511 q 629 559 620 548 q 652 568 639 568 q 697 568 671 568 q 754 568 724 568 q 867 568 808 568 q 960 568 925 568 q 983 559 974 568 q 993 534 993 548 m 682 997 q 696 1004 689 1002 q 703 1004 699 1004 q 712 1002 707 1004 q 844 943 783 982 q 954 850 906 903 q 962 826 963 840 q 951 803 962 812 q 894 751 928 783 q 836 699 860 720 q 825 692 830 694 q 811 690 818 689 q 799 693 804 690 q 788 701 792 696 q 742 743 768 724 q 689 774 718 761 q 674 787 680 779 q 669 804 669 795 q 669 883 669 833 q 669 971 669 933 q 673 985 669 978 q 682 997 675 993 z "},"H":{"ha":1032,"x_min":84,"x_max":990,"o":"m 339 612 q 445 612 380 612 q 551 612 511 612 q 575 601 564 612 q 585 578 585 591 q 585 500 585 547 q 585 422 585 454 q 575 399 585 408 q 551 389 564 389 q 445 389 511 389 q 339 389 380 389 q 316 380 326 389 q 307 355 307 369 q 307 259 307 320 q 307 140 307 198 q 307 80 307 109 q 307 34 307 53 q 304 20 307 27 q 296 9 301 15 q 285 3 292 5 q 273 0 279 0 q 195 0 241 0 q 117 0 149 0 q 94 9 103 0 q 84 34 84 19 q 84 96 84 57 q 84 183 84 134 q 84 389 84 274 q 84 616 84 505 q 84 826 84 731 q 84 967 84 921 q 94 990 84 981 q 117 1000 103 1000 q 273 1000 170 1000 q 296 990 286 1000 q 307 967 307 981 q 307 920 307 948 q 307 861 307 892 q 307 742 307 803 q 307 644 307 681 q 316 621 307 631 q 339 612 326 612 m 990 967 q 990 830 990 922 q 990 628 990 739 q 990 506 990 568 q 990 384 990 444 q 990 175 990 270 q 990 34 990 79 q 981 9 990 19 q 956 0 971 0 q 879 0 925 0 q 802 0 833 0 q 777 9 787 0 q 768 34 768 19 q 768 96 768 57 q 768 183 768 134 q 768 389 768 274 q 768 616 768 505 q 768 826 768 731 q 768 967 768 921 q 777 990 768 981 q 802 1000 787 1000 q 879 1000 833 1000 q 956 1000 925 1000 q 981 990 971 1000 q 990 967 990 981 z "},"I":{"ha":391,"x_min":84,"x_max":307,"o":"m 307 967 q 307 830 307 922 q 307 628 307 739 q 307 506 307 568 q 307 384 307 444 q 307 175 307 270 q 307 34 307 79 q 297 9 307 19 q 273 0 288 0 q 195 0 241 0 q 118 0 149 0 q 94 9 104 0 q 84 34 84 19 q 84 96 84 57 q 84 183 84 134 q 84 389 84 274 q 84 616 84 505 q 84 826 84 731 q 84 967 84 921 q 94 990 84 981 q 118 1000 104 1000 q 195 1000 149 1000 q 273 1000 241 1000 q 297 990 288 1000 q 307 967 307 981 z "},"J":{"ha":972,"x_min":45,"x_max":921,"o":"m 240 339 q 279 283 255 309 q 335 241 304 259 q 349 229 343 237 q 353 213 353 221 q 353 133 353 184 q 353 43 353 81 q 349 28 353 35 q 339 16 346 20 q 326 11 332 12 q 309 11 317 9 q 157 95 225 39 q 49 225 91 151 q 45 240 45 232 q 46 250 45 245 q 61 269 49 262 q 125 311 85 285 q 193 353 164 335 q 205 358 198 357 q 218 357 212 358 q 231 350 225 355 q 240 339 236 346 m 921 437 q 917 377 921 407 q 903 319 911 347 q 869 232 891 274 q 818 156 848 191 q 765 102 793 126 q 704 57 736 77 q 636 23 671 37 q 563 0 600 8 q 563 0 563 0 q 563 0 563 0 q 562 0 563 0 q 562 1 562 1 q 562 45 562 9 q 562 121 562 80 q 562 172 562 148 q 562 213 562 197 q 566 229 562 221 q 579 241 571 237 q 665 323 632 271 q 699 437 699 374 q 699 529 699 437 q 699 727 699 620 q 699 864 699 799 q 699 966 699 929 q 701 978 699 972 q 708 989 703 985 q 719 997 712 994 q 731 998 724 998 q 810 998 764 998 q 887 998 856 998 q 899 997 894 998 q 910 989 906 994 q 918 978 916 985 q 921 966 921 972 q 921 864 921 929 q 921 727 921 799 q 921 529 921 620 q 921 437 921 437 z "},"K":{"ha":1057,"x_min":85,"x_max":1013,"o":"m 307 967 q 307 830 307 922 q 307 628 307 739 q 307 506 307 568 q 307 384 307 444 q 307 175 307 270 q 307 34 307 79 q 297 9 307 19 q 274 0 288 0 q 197 0 243 0 q 118 0 149 0 q 95 9 104 0 q 85 34 85 19 q 85 96 85 57 q 85 183 85 134 q 85 389 85 274 q 85 616 85 505 q 85 826 85 731 q 85 967 85 921 q 95 990 85 981 q 118 1000 104 1000 q 197 1000 149 1000 q 274 1000 243 1000 q 297 990 288 1000 q 307 967 307 981 m 979 0 q 878 0 935 0 q 792 0 821 0 q 776 4 784 0 q 765 15 769 8 q 743 46 757 27 q 713 91 730 66 q 651 183 684 134 q 601 258 620 231 q 595 281 594 269 q 606 301 597 293 q 662 354 628 321 q 722 408 697 385 q 734 415 727 412 q 749 416 741 418 q 761 412 755 415 q 772 401 768 408 q 804 354 785 382 q 846 292 823 326 q 932 163 887 231 q 1008 52 978 96 q 1013 35 1012 45 q 1013 34 1013 34 q 1009 18 1013 26 q 997 5 1005 9 q 979 0 989 0 m 993 943 q 929 883 966 917 q 852 812 892 849 q 699 671 776 742 q 571 555 621 600 q 555 545 564 548 q 536 548 544 544 q 521 560 526 552 q 515 579 515 568 q 515 697 515 632 q 515 791 515 762 q 518 803 515 798 q 526 815 521 810 q 557 844 537 825 q 600 882 576 861 q 669 945 635 914 q 719 991 703 977 q 728 998 723 996 q 741 1000 735 1000 q 840 1000 769 1000 q 971 1000 911 1000 q 990 994 981 1000 q 1002 979 998 989 q 1004 959 1005 970 q 993 943 1001 949 z "},"L":{"ha":996,"x_min":84,"x_max":955,"o":"m 921 0 q 865 0 899 0 q 793 0 833 0 q 647 0 722 0 q 529 0 571 0 q 506 9 515 0 q 496 34 496 19 q 496 111 496 65 q 496 189 496 157 q 506 213 496 202 q 529 222 515 222 q 585 222 552 222 q 658 222 618 222 q 804 222 728 222 q 921 222 880 222 q 945 213 935 222 q 955 189 955 202 q 955 111 955 157 q 955 34 955 65 q 945 9 955 19 q 921 0 935 0 m 334 967 q 334 830 334 922 q 334 628 334 739 q 334 506 334 568 q 334 384 334 444 q 334 175 334 270 q 334 34 334 79 q 331 20 334 27 q 324 9 328 15 q 313 3 320 5 q 301 0 308 0 q 209 0 264 0 q 117 0 153 0 q 104 3 111 0 q 94 9 99 5 q 87 20 90 15 q 84 34 84 27 q 84 96 84 57 q 84 183 84 134 q 84 389 84 274 q 84 616 84 505 q 84 826 84 731 q 84 967 84 921 q 87 979 84 974 q 94 990 90 986 q 104 998 99 996 q 117 1000 111 1000 q 209 1000 153 1000 q 301 1000 264 1000 q 313 998 308 1000 q 324 990 320 996 q 331 979 328 986 q 334 967 334 974 z "},"M":{"ha":1318,"x_min":83,"x_max":1276,"o":"m 1270 437 q 1270 363 1270 403 q 1270 285 1270 326 q 1270 141 1270 210 q 1270 34 1270 72 q 1259 9 1270 19 q 1236 0 1249 0 q 1158 0 1204 0 q 1080 0 1112 0 q 1057 9 1066 0 q 1047 34 1047 19 q 1047 117 1047 68 q 1047 184 1047 164 q 1048 194 1047 190 q 1051 202 1050 198 q 1067 228 1057 212 q 1090 266 1077 244 q 1147 358 1116 307 q 1207 454 1180 410 q 1223 468 1213 464 q 1245 468 1234 472 q 1263 456 1256 465 q 1270 437 1270 448 m 305 967 q 305 905 305 943 q 305 817 305 865 q 305 610 305 726 q 305 384 305 495 q 305 175 305 270 q 305 34 305 79 q 296 9 305 19 q 273 0 286 0 q 194 0 240 0 q 117 0 148 0 q 94 9 103 0 q 83 34 83 19 q 83 96 83 57 q 83 183 83 134 q 83 389 83 274 q 83 616 83 505 q 83 826 83 731 q 83 967 83 921 q 94 990 83 981 q 117 1000 103 1000 q 194 1000 148 1000 q 273 1000 240 1000 q 296 990 286 1000 q 305 967 305 981 m 1271 952 q 1229 884 1253 925 q 1175 796 1204 845 q 1051 597 1119 707 q 917 380 983 487 q 791 178 849 270 q 703 34 734 84 q 690 22 697 26 q 673 18 682 18 q 656 23 665 18 q 644 35 650 27 q 597 118 625 69 q 547 205 570 165 q 524 244 533 227 q 509 269 514 260 q 506 277 507 273 q 505 286 505 281 q 505 316 505 296 q 505 363 505 336 q 505 477 505 412 q 505 597 505 541 q 511 617 505 608 q 529 629 518 627 q 551 628 540 632 q 567 613 562 624 q 612 536 589 576 q 651 468 635 496 q 663 456 656 460 q 680 450 671 450 q 696 454 689 450 q 708 467 704 458 q 758 547 728 499 q 822 650 788 595 q 947 850 884 751 q 1031 987 1008 951 q 1043 998 1036 994 q 1059 1002 1051 1002 q 1143 1002 1088 1002 q 1242 1002 1198 1002 q 1260 998 1252 1002 q 1272 986 1267 994 q 1276 968 1276 978 q 1271 952 1275 960 z "},"N":{"ha":1073,"x_min":84,"x_max":1031,"o":"m 1027 18 q 1015 5 1023 9 q 997 0 1006 0 q 891 0 949 0 q 806 0 833 0 q 789 4 798 0 q 779 14 783 7 q 743 62 766 30 q 686 141 719 96 q 544 339 625 224 q 377 568 461 453 q 217 789 292 686 q 102 949 142 892 q 95 967 96 958 q 99 985 94 977 q 111 998 103 993 q 129 1002 119 1002 q 233 1002 175 1002 q 320 1002 292 1002 q 335 1000 328 1002 q 347 989 343 996 q 430 875 369 959 q 570 681 491 791 q 658 560 613 623 q 747 435 703 496 q 909 213 833 316 q 1024 53 983 110 q 1031 35 1029 45 q 1031 33 1031 34 q 1027 18 1031 26 m 145 534 q 235 410 187 476 q 301 319 283 342 q 305 309 304 315 q 307 300 307 305 q 307 267 307 288 q 307 222 307 247 q 307 121 307 175 q 307 34 307 66 q 297 9 307 19 q 274 0 288 0 q 195 0 241 0 q 118 0 149 0 q 95 9 104 0 q 84 34 84 19 q 84 163 84 77 q 84 338 84 247 q 84 431 84 385 q 84 514 84 477 q 91 534 84 525 q 107 547 98 543 q 129 547 118 549 q 145 534 138 543 m 769 772 q 769 863 769 798 q 769 970 769 928 q 779 993 769 983 q 803 1002 788 1002 q 880 1002 834 1002 q 958 1002 926 1002 q 982 993 972 1002 q 991 970 991 983 q 991 556 991 831 q 985 537 991 545 q 968 525 979 528 q 948 525 958 522 q 930 537 937 529 q 841 662 890 595 q 776 753 792 728 q 770 762 772 757 q 769 772 769 766 z "},"O":{"ha":1115,"x_min":42,"x_max":1088,"o":"m 448 997 q 457 985 453 993 q 460 971 460 978 q 460 883 460 933 q 460 804 460 833 q 454 787 460 795 q 441 774 449 779 q 313 665 362 739 q 264 500 264 591 q 313 335 264 410 q 441 227 362 262 q 454 214 449 222 q 460 197 460 206 q 460 118 460 168 q 460 30 460 68 q 457 15 460 23 q 448 4 453 8 q 433 -3 441 -1 q 426 -3 430 -3 q 418 -1 422 -3 q 148 184 255 46 q 42 500 42 323 q 148 817 42 678 q 418 1002 255 955 q 433 1004 426 1005 q 448 997 441 1002 m 682 997 q 696 1004 688 1002 q 703 1004 700 1004 q 711 1002 707 1004 q 981 817 873 955 q 1088 500 1088 678 q 981 184 1088 323 q 711 -1 873 46 q 696 -3 704 -4 q 682 4 688 -1 q 673 16 675 8 q 669 30 669 23 q 669 118 669 68 q 669 197 669 168 q 674 214 669 206 q 689 227 680 222 q 815 336 766 262 q 865 500 865 410 q 817 666 865 591 q 689 774 766 739 q 674 787 680 779 q 669 804 669 795 q 669 883 669 833 q 669 971 669 933 q 673 986 669 978 q 682 997 675 993 z "},"P":{"ha":1053,"x_min":84,"x_max":1010,"o":"m 118 1000 q 195 1000 149 1000 q 274 1000 243 1000 q 297 990 288 1000 q 307 967 307 981 q 307 830 307 922 q 307 628 307 739 q 307 506 307 568 q 307 384 307 444 q 307 175 307 270 q 307 34 307 79 q 297 9 307 19 q 274 0 288 0 q 195 0 243 0 q 118 0 149 0 q 95 9 104 0 q 84 34 84 19 q 84 96 84 57 q 84 183 84 134 q 84 389 84 274 q 84 616 84 505 q 84 826 84 731 q 84 967 84 921 q 95 990 84 981 q 118 1000 104 1000 m 549 1000 q 674 1000 590 1000 q 803 974 741 1000 q 911 901 864 948 q 985 791 959 853 q 1010 662 1010 730 q 1010 662 1010 662 q 985 533 1010 595 q 911 425 959 472 q 803 351 864 377 q 674 326 741 326 q 628 326 674 326 q 549 326 583 326 q 525 335 534 326 q 515 359 515 345 q 515 437 515 391 q 515 514 515 483 q 525 538 515 529 q 549 548 534 548 q 674 548 590 548 q 718 556 696 548 q 754 582 738 566 q 780 618 770 598 q 788 662 788 640 q 788 662 788 662 q 780 707 788 685 q 754 743 770 727 q 718 768 738 760 q 674 777 696 777 q 628 777 674 777 q 549 777 583 777 q 525 787 534 777 q 515 810 515 796 q 515 888 515 842 q 515 966 515 935 q 525 989 515 979 q 549 1000 534 1000 z "},"Q":{"ha":1199,"x_min":46,"x_max":1154,"o":"m 450 997 q 461 985 457 993 q 464 971 464 978 q 464 883 464 933 q 464 804 464 833 q 458 787 464 795 q 445 774 453 779 q 317 665 366 739 q 267 500 267 591 q 317 335 267 410 q 445 227 366 262 q 458 214 453 222 q 464 197 464 206 q 464 118 464 168 q 464 30 464 68 q 461 15 464 23 q 452 4 457 8 q 437 -3 445 -1 q 430 -3 434 -3 q 422 -1 426 -3 q 152 184 259 46 q 46 500 46 323 q 152 817 46 678 q 422 1002 259 955 q 437 1004 430 1005 q 450 997 445 1002 m 876 77 q 799 31 840 52 q 715 -1 758 11 q 700 -3 708 -4 q 686 4 692 -1 q 677 16 680 8 q 673 30 673 23 q 673 118 673 68 q 673 197 673 168 q 678 214 673 206 q 693 227 684 222 q 819 336 770 262 q 869 500 869 410 q 819 666 869 591 q 693 774 770 739 q 678 787 684 779 q 673 804 673 795 q 673 883 673 833 q 673 971 673 933 q 675 986 673 978 q 686 997 680 993 q 700 1004 692 1002 q 707 1004 703 1004 q 715 1002 711 1004 q 985 817 878 955 q 1092 500 1092 678 q 1080 391 1092 445 q 1047 289 1069 338 q 1044 269 1042 279 q 1057 250 1047 258 q 1111 205 1080 231 q 1142 179 1142 179 q 1154 157 1153 171 q 1154 153 1154 155 q 1146 133 1154 142 q 1097 73 1127 109 q 1047 12 1067 37 q 1025 0 1039 1 q 1001 8 1012 -1 q 970 33 1001 8 q 917 77 940 58 q 897 84 907 84 q 876 77 884 84 z "},"R":{"ha":1053,"x_min":84,"x_max":1009,"o":"m 117 998 q 195 998 148 998 q 273 998 241 998 q 296 989 286 998 q 307 964 307 979 q 307 902 307 941 q 307 815 307 864 q 307 609 307 724 q 307 382 307 494 q 307 172 307 267 q 307 31 307 77 q 296 8 307 18 q 273 -1 286 -1 q 195 -1 241 -1 q 117 -1 148 -1 q 94 8 103 -1 q 84 31 84 18 q 84 94 84 56 q 84 182 84 133 q 84 388 84 273 q 84 614 84 503 q 84 823 84 728 q 84 964 84 920 q 94 989 84 979 q 117 998 103 998 m 850 212 q 913 138 872 186 q 986 53 952 92 q 993 35 991 46 q 990 18 994 26 q 978 3 986 8 q 960 -1 970 -1 q 846 -1 909 -1 q 755 -1 784 -1 q 742 1 749 -1 q 730 9 735 4 q 680 69 713 28 q 616 144 646 109 q 609 161 610 151 q 612 179 608 171 q 624 194 616 189 q 642 198 632 198 q 663 198 655 198 q 673 198 673 198 q 745 205 709 198 q 815 221 781 210 q 834 221 825 224 q 850 212 844 218 m 548 997 q 673 997 589 997 q 802 971 739 997 q 910 898 863 945 q 983 789 958 852 q 1009 661 1009 727 q 1009 661 1009 661 q 983 532 1009 594 q 910 422 958 469 q 802 350 863 374 q 673 324 739 324 q 628 324 673 324 q 548 324 582 324 q 524 334 534 324 q 514 357 514 343 q 514 435 514 388 q 514 513 514 481 q 524 536 514 526 q 548 547 534 547 q 673 547 589 547 q 716 555 696 547 q 754 579 738 563 q 779 617 769 595 q 787 661 787 637 q 787 661 787 661 q 779 704 787 684 q 754 742 769 726 q 716 766 738 757 q 673 774 696 774 q 628 774 673 774 q 548 774 582 774 q 524 785 534 774 q 514 808 514 795 q 514 886 514 840 q 514 964 514 932 q 524 987 514 978 q 548 997 534 997 z "},"S":{"ha":970,"x_min":42,"x_max":943,"o":"m 362 974 q 362 890 362 939 q 362 811 362 841 q 355 792 362 802 q 340 780 350 784 q 339 780 340 780 q 339 780 339 780 q 293 751 312 769 q 273 704 274 734 q 296 656 271 670 q 347 632 319 642 q 430 616 387 621 q 514 609 473 612 q 628 600 564 605 q 749 574 692 594 q 884 484 829 545 q 943 309 939 422 q 943 298 943 304 q 926 197 943 245 q 868 102 907 144 q 768 33 831 62 q 606 -7 704 3 q 604 -7 605 -7 q 593 -5 598 -7 q 581 1 586 -3 q 574 12 576 7 q 570 26 570 19 q 570 106 570 58 q 570 182 570 152 q 579 205 570 195 q 600 216 587 214 q 625 220 613 217 q 648 225 637 221 q 704 255 686 235 q 720 302 722 275 q 696 353 719 339 q 646 372 673 366 q 570 382 608 380 q 499 387 530 385 q 359 403 431 391 q 229 439 288 414 q 96 541 146 476 q 52 713 47 606 q 130 903 56 829 q 320 1006 205 978 q 335 1006 328 1008 q 349 1000 343 1004 q 358 987 355 994 q 362 974 362 981 m 321 8 q 170 57 232 26 q 54 132 109 87 q 46 142 49 136 q 42 155 42 148 q 42 157 42 156 q 43 168 42 163 q 50 179 46 174 q 103 240 72 203 q 155 298 134 275 q 175 311 163 308 q 198 305 187 312 q 259 269 221 290 q 338 235 298 247 q 355 222 349 232 q 362 202 362 213 q 362 125 362 172 q 362 41 362 76 q 358 27 362 34 q 350 15 355 20 q 336 8 343 11 q 321 8 330 7 m 608 1015 q 768 971 711 1001 q 863 903 823 941 q 869 892 868 898 q 872 879 872 886 q 869 865 872 872 q 863 854 868 860 q 806 800 840 833 q 749 746 772 768 q 727 738 739 738 q 705 745 715 736 q 661 772 686 761 q 597 791 636 784 q 578 802 586 793 q 570 823 570 811 q 570 901 570 853 q 570 982 570 948 q 574 996 570 989 q 582 1006 576 1002 q 594 1013 587 1012 q 604 1015 598 1015 q 608 1015 606 1015 z "},"T":{"ha":1024,"x_min":81,"x_max":982,"o":"m 453 571 q 532 571 486 571 q 609 571 578 571 q 632 562 623 571 q 643 538 643 552 q 643 469 643 511 q 643 376 643 426 q 643 182 643 281 q 643 34 643 83 q 632 9 643 19 q 609 0 623 0 q 532 0 578 0 q 453 0 486 0 q 430 9 439 0 q 420 34 420 19 q 420 538 420 202 q 430 562 420 552 q 453 571 439 571 m 81 811 q 81 890 81 842 q 81 967 81 936 q 91 990 81 981 q 114 1000 100 1000 q 237 1000 156 1000 q 418 1000 320 1000 q 526 1000 471 1000 q 635 1000 581 1000 q 821 1000 736 1000 q 948 1000 906 1000 q 972 990 963 1000 q 982 967 982 981 q 982 890 982 936 q 982 811 982 842 q 972 788 982 798 q 948 779 963 779 q 891 779 926 779 q 812 779 856 779 q 629 779 731 779 q 429 779 528 779 q 241 779 327 779 q 114 779 156 779 q 91 788 100 779 q 81 811 81 798 z "},"U":{"ha":1053,"x_min":83,"x_max":1010,"o":"m 305 966 q 305 427 305 787 q 339 313 305 365 q 425 232 372 262 q 438 220 433 228 q 442 202 442 212 q 442 123 442 175 q 442 34 442 71 q 438 19 442 26 q 429 7 435 11 q 415 0 422 1 q 399 1 407 -1 q 172 164 260 47 q 83 427 83 281 q 83 441 83 427 q 83 476 83 454 q 83 586 83 519 q 83 724 83 654 q 83 864 83 798 q 83 966 83 930 q 85 979 83 972 q 94 990 88 985 q 104 997 98 994 q 117 1000 110 1000 q 194 1000 148 1000 q 273 1000 241 1000 q 285 997 279 1000 q 296 990 292 994 q 302 979 301 985 q 305 966 305 972 m 1010 966 q 1010 864 1010 930 q 1010 724 1010 798 q 1010 648 1010 686 q 1010 576 1010 609 q 1010 469 1010 511 q 1010 427 1010 427 q 921 164 1010 281 q 694 1 833 46 q 685 0 689 0 q 678 0 681 0 q 665 7 671 1 q 654 18 658 11 q 651 34 651 26 q 651 123 651 71 q 651 202 651 175 q 655 220 651 212 q 669 232 661 228 q 754 313 722 262 q 788 427 788 365 q 788 441 788 427 q 788 476 788 454 q 788 586 788 519 q 788 724 788 654 q 788 864 788 798 q 788 966 788 930 q 791 979 788 972 q 798 990 792 985 q 808 997 802 994 q 821 1000 814 1000 q 899 1000 852 1000 q 977 1000 945 1000 q 989 997 983 1000 q 1000 990 996 994 q 1008 979 1005 985 q 1010 966 1010 972 z "},"V":{"ha":1152,"x_min":45,"x_max":1107,"o":"m 692 0 q 524 0 636 0 q 507 4 515 0 q 496 15 500 8 q 490 30 491 22 q 492 46 490 38 q 555 199 514 99 q 644 415 597 300 q 694 538 669 476 q 745 661 720 601 q 825 856 789 769 q 875 979 860 944 q 887 994 879 989 q 906 1000 895 1000 q 1074 1000 962 1000 q 1089 997 1082 1000 q 1101 986 1097 993 q 1107 970 1107 978 q 1107 967 1107 968 q 1105 955 1107 960 q 1042 802 1084 901 q 954 585 1001 701 q 860 357 907 471 q 779 157 814 243 q 745 75 760 110 q 723 20 731 41 q 711 5 719 11 q 692 0 701 0 m 285 983 q 316 924 296 963 q 362 841 338 886 q 435 705 399 772 q 486 612 472 639 q 490 597 490 605 q 488 583 491 590 q 454 500 477 556 q 411 397 431 444 q 400 382 408 388 q 382 376 392 377 q 365 380 373 376 q 351 393 355 385 q 307 477 332 429 q 250 581 279 526 q 137 788 194 682 q 49 951 80 892 q 45 967 45 959 q 50 983 45 977 q 62 996 54 991 q 79 1000 69 1000 q 174 1000 121 1000 q 255 1000 227 1000 q 273 996 264 1000 q 285 983 281 991 z "},"W":{"ha":1487,"x_min":45,"x_max":1440,"o":"m 838 955 q 795 806 823 905 q 734 591 768 707 q 700 468 718 530 q 665 347 682 407 q 609 149 633 237 q 572 23 583 62 q 562 7 570 14 q 541 -1 552 0 q 464 -1 513 -1 q 378 -3 415 -1 q 363 1 372 -3 q 351 11 357 4 q 346 24 347 18 q 346 41 345 33 q 369 121 355 72 q 396 218 382 168 q 435 354 418 293 q 453 415 453 415 q 453 415 453 415 q 457 429 453 415 q 468 467 460 442 q 500 583 480 511 q 543 730 521 655 q 583 873 564 806 q 612 974 602 940 q 624 991 614 985 q 644 998 632 998 q 806 998 697 998 q 821 994 814 998 q 831 985 827 990 q 838 971 837 978 q 838 955 840 963 m 1143 0 q 1065 0 1114 0 q 986 0 1016 0 q 967 7 975 0 q 955 23 958 12 q 943 60 949 38 q 928 104 936 80 q 899 194 913 149 q 878 258 884 239 q 876 267 876 262 q 878 277 876 273 q 905 374 884 302 q 941 503 925 446 q 952 519 944 513 q 970 528 959 526 q 987 525 979 529 q 1002 513 997 521 q 1010 500 1006 506 q 1017 488 1013 494 q 1032 475 1023 479 q 1050 472 1040 471 q 1067 480 1061 473 q 1078 496 1076 487 q 1123 656 1096 560 q 1173 836 1150 751 q 1198 918 1187 882 q 1214 977 1207 955 q 1226 993 1217 986 q 1245 1000 1234 1000 q 1324 1000 1275 1000 q 1408 1000 1371 1000 q 1423 997 1415 1000 q 1434 987 1430 993 q 1440 972 1439 981 q 1440 967 1440 970 q 1439 958 1440 963 q 1397 808 1426 907 q 1336 594 1369 709 q 1302 471 1320 533 q 1267 350 1284 408 q 1211 152 1236 240 q 1175 24 1185 62 q 1162 7 1172 14 q 1143 0 1154 0 m 273 975 q 301 886 283 943 q 327 806 320 829 q 328 796 328 802 q 327 787 328 792 q 296 674 319 760 q 251 515 271 590 q 239 499 247 506 q 218 491 231 492 q 199 498 208 491 q 187 515 190 505 q 163 590 175 549 q 136 675 149 632 q 85 833 110 757 q 46 956 60 910 q 45 966 45 960 q 45 971 45 968 q 50 986 46 979 q 62 996 56 991 q 77 1000 69 1000 q 163 1000 114 1000 q 241 1000 212 1000 q 260 993 252 1000 q 273 975 270 986 z "},"X":{"ha":1027,"x_min":45,"x_max":981,"o":"m 79 53 q 152 159 110 96 q 224 259 195 220 q 235 270 228 266 q 251 274 243 274 q 266 270 259 274 q 278 259 273 266 q 328 187 300 228 q 373 123 357 146 q 378 104 378 115 q 373 85 378 94 q 347 49 362 69 q 323 15 332 28 q 312 4 319 8 q 296 0 304 0 q 210 0 267 0 q 106 0 153 0 q 90 5 96 0 q 76 18 81 9 q 73 35 72 26 q 79 53 73 45 m 296 986 q 335 929 309 967 q 391 849 361 892 q 475 730 435 785 q 513 674 513 674 q 513 674 513 674 q 648 480 559 610 q 648 480 648 480 q 697 411 648 480 q 804 256 745 343 q 883 145 845 199 q 948 53 921 90 q 954 35 952 45 q 949 18 954 26 q 937 5 945 9 q 920 0 929 0 q 817 0 873 0 q 730 0 758 0 q 715 4 722 0 q 703 15 708 8 q 669 64 692 31 q 614 141 646 96 q 476 339 556 225 q 317 567 397 453 q 163 788 235 685 q 52 948 91 891 q 45 964 46 955 q 45 967 45 966 q 49 982 46 975 q 61 996 53 990 q 79 1000 69 1000 q 183 1000 125 1000 q 269 1000 240 1000 q 283 997 277 1000 q 296 986 292 993 m 975 948 q 887 822 940 897 q 803 701 836 747 q 791 692 799 694 q 776 688 784 688 q 761 692 768 688 q 749 701 753 694 q 699 773 727 732 q 654 838 670 814 q 647 857 647 846 q 654 876 647 867 q 693 932 669 898 q 731 986 718 967 q 742 997 735 993 q 758 1000 750 1000 q 844 1000 785 1000 q 948 1000 901 1000 q 964 996 958 1000 q 977 982 972 990 q 981 967 981 975 q 981 964 981 966 q 975 948 981 955 z "},"Y":{"ha":1046,"x_min":46,"x_max":1000,"o":"m 292 985 q 345 902 308 959 q 425 774 380 844 q 472 697 448 736 q 521 621 496 658 q 616 469 575 533 q 655 406 655 406 q 655 343 655 406 q 655 206 655 282 q 655 110 655 156 q 655 34 655 62 q 646 9 655 19 q 623 0 636 0 q 544 0 590 0 q 467 0 498 0 q 453 3 460 0 q 442 9 448 5 q 435 20 438 15 q 433 34 433 27 q 433 342 433 136 q 404 388 433 342 q 331 505 374 434 q 281 583 308 541 q 228 669 255 625 q 129 827 176 751 q 52 949 80 903 q 46 966 46 956 q 46 967 46 967 q 50 983 46 975 q 62 996 54 991 q 80 1000 71 1000 q 180 1000 125 1000 q 263 1000 235 1000 q 279 996 273 1000 q 292 985 288 991 m 994 949 q 936 856 970 911 q 867 746 901 799 q 833 692 849 718 q 804 647 817 666 q 792 635 800 639 q 776 631 785 631 q 760 635 768 631 q 749 647 753 639 q 699 726 727 681 q 656 793 671 769 q 651 811 651 802 q 656 829 651 821 q 705 907 674 856 q 754 985 738 959 q 766 996 758 991 q 783 1000 774 1000 q 867 1000 811 1000 q 966 1000 922 1000 q 983 996 975 1000 q 996 983 991 991 q 1000 966 1000 975 q 994 949 1000 956 z "},"Z":{"ha":1147,"x_min":45,"x_max":1103,"o":"m 1002 990 q 1044 947 1017 975 q 1093 898 1073 918 q 1101 887 1099 894 q 1103 875 1103 882 q 1100 861 1103 868 q 1093 850 1099 856 q 960 722 1054 811 q 757 522 868 631 q 639 407 699 465 q 524 294 579 349 q 338 113 418 191 q 231 8 256 34 q 221 1 227 4 q 208 -1 214 -1 q 189 -1 199 -1 q 170 -1 178 -1 q 157 1 163 -1 q 146 9 151 4 q 103 52 132 23 q 54 100 76 80 q 47 111 50 106 q 45 125 45 118 q 47 137 45 132 q 56 148 50 144 q 187 277 95 187 q 391 476 281 368 q 509 591 449 533 q 625 705 570 650 q 811 886 730 807 q 917 990 891 964 q 928 997 922 994 q 940 1000 935 1000 q 959 1000 949 1000 q 979 1000 970 1000 q 991 997 985 1000 q 1002 990 997 994 m 761 222 q 1004 222 841 222 q 1027 212 1017 222 q 1036 189 1036 202 q 1036 145 1036 170 q 1036 95 1036 121 q 1036 28 1036 58 q 1036 -1 1036 -1 q 970 -1 1036 -1 q 818 -1 903 -1 q 703 -1 760 -1 q 601 -1 644 -1 q 582 5 591 -1 q 570 20 574 11 q 568 39 566 30 q 578 57 570 49 q 667 145 618 96 q 736 213 718 193 q 747 220 742 217 q 761 222 754 222 m 570 941 q 479 853 528 902 q 410 787 430 806 q 399 779 406 781 q 387 777 393 777 q 283 777 355 777 q 167 777 212 777 q 144 787 153 777 q 133 810 133 796 q 133 888 133 841 q 133 966 133 935 q 144 989 133 979 q 167 1000 153 1000 q 545 1000 293 1000 q 564 993 556 1000 q 576 978 572 987 q 579 959 581 968 q 570 941 576 949 z "},"\\":{"ha":739,"x_min":84,"x_max":697,"o":"m 486 0 q 468 5 476 0 q 457 19 461 11 q 85 960 334 332 q 84 971 84 966 q 90 987 84 979 q 114 1000 98 1000 q 296 1000 174 1000 q 312 996 305 1000 q 323 982 320 990 q 694 41 448 667 q 697 28 697 34 q 692 14 697 20 q 667 0 684 0 q 576 0 621 0 q 486 0 530 0 z "},"^":{"ha":878,"x_min":83,"x_max":837,"o":"m 650 297 q 639 304 644 298 q 631 313 633 308 q 600 381 620 339 q 560 469 581 423 q 499 601 528 538 q 463 682 471 665 q 461 684 461 682 q 458 684 460 684 q 423 608 452 670 q 362 473 395 544 q 320 384 340 426 q 289 313 301 340 q 281 304 286 308 q 270 297 275 298 q 256 294 263 294 q 244 297 251 294 q 174 330 216 311 q 103 362 132 350 q 85 381 91 368 q 83 393 83 387 q 87 407 84 400 q 157 562 109 456 q 254 770 206 667 q 312 897 286 840 q 350 981 338 954 q 362 994 354 989 q 380 1000 370 1000 q 460 1000 410 1000 q 540 1000 510 1000 q 557 994 549 1000 q 570 981 566 989 q 608 897 582 954 q 666 770 635 840 q 762 562 713 667 q 833 407 810 456 q 837 393 836 400 q 834 381 837 387 q 817 362 829 369 q 746 330 788 349 q 675 297 704 311 q 663 294 669 294 q 661 294 662 294 q 650 297 655 294 z "},"_":{"ha":849,"x_min":83,"x_max":806,"o":"m 110 0 q 91 8 99 0 q 83 27 83 16 q 83 194 83 83 q 91 214 83 206 q 110 222 99 222 q 779 222 334 222 q 798 214 789 222 q 806 194 806 206 q 806 27 806 138 q 798 8 806 16 q 779 0 789 0 q 445 0 612 0 q 110 0 278 0 z "},"`":{"ha":339,"x_min":42,"x_max":297,"o":"m 255 922 q 244 860 235 888 q 294 800 254 831 q 297 796 296 799 q 297 793 297 795 q 297 789 297 791 q 294 785 297 787 q 289 783 292 783 q 267 781 278 783 q 256 781 260 781 q 252 781 254 781 q 213 788 231 783 q 176 799 195 792 q 76 876 114 819 q 42 977 42 930 q 42 983 42 979 q 76 1065 42 1031 q 157 1099 110 1099 q 239 1065 205 1099 q 273 983 273 1031 q 269 951 273 967 q 255 922 263 936 z "},"a":{"ha":1108,"x_min":43,"x_max":1088,"o":"m 709 387 q 678 467 697 418 q 636 571 658 515 q 549 785 594 675 q 481 955 506 895 q 480 971 479 962 q 486 986 480 979 q 496 997 490 993 q 513 1001 505 1001 q 601 1001 551 1001 q 681 1001 651 1001 q 699 994 690 1001 q 711 979 708 989 q 734 925 719 960 q 766 844 747 890 q 846 643 800 757 q 937 415 892 529 q 1024 199 983 300 q 1085 46 1065 99 q 1088 33 1088 39 q 1088 30 1088 31 q 1082 15 1086 22 q 1070 4 1078 8 q 1055 0 1063 0 q 966 0 1016 0 q 887 0 916 0 q 868 5 876 0 q 856 22 860 12 q 841 60 849 37 q 826 98 831 81 q 814 113 822 107 q 795 118 804 118 q 701 118 762 118 q 597 118 642 118 q 582 122 589 118 q 570 133 574 126 q 564 149 564 141 q 567 165 563 157 q 602 248 582 201 q 635 320 623 294 q 647 335 639 330 q 665 340 655 340 q 671 340 669 340 q 678 340 675 340 q 694 345 688 340 q 707 355 701 349 q 712 370 711 362 q 709 387 712 378 m 46 49 q 81 132 60 81 q 130 241 104 182 q 229 471 178 351 q 313 663 282 590 q 327 678 317 673 q 345 684 335 684 q 363 678 355 684 q 376 662 372 671 q 422 548 396 610 q 457 460 446 486 q 458 446 458 453 q 456 434 458 439 q 412 332 444 406 q 346 182 380 258 q 305 88 324 132 q 277 22 286 45 q 264 7 273 12 q 245 1 256 1 q 167 1 217 1 q 76 1 115 1 q 61 5 68 1 q 49 16 53 9 q 43 33 43 24 q 43 35 43 34 q 46 49 43 42 z "},"b":{"ha":1055,"x_min":84,"x_max":1015,"o":"m 548 208 q 726 208 608 208 q 757 214 742 208 q 783 235 772 221 q 792 248 788 240 q 800 264 798 256 q 807 277 802 271 q 819 283 812 282 q 875 307 860 298 q 894 317 890 316 q 928 339 911 327 q 958 362 944 351 q 974 369 964 368 q 991 366 983 370 q 1005 357 1000 363 q 1012 340 1010 350 q 1013 320 1013 330 q 1015 298 1015 309 q 1015 298 1015 298 q 994 190 1015 241 q 939 96 974 137 q 841 23 897 49 q 726 -1 785 -1 q 699 -1 726 -1 q 636 -1 671 -1 q 590 -1 613 -1 q 548 -1 566 -1 q 525 8 534 -1 q 515 33 515 18 q 515 103 515 61 q 515 174 515 145 q 525 198 515 187 q 548 208 534 208 m 118 1000 q 195 1000 149 1000 q 273 1000 241 1000 q 297 990 288 1000 q 307 966 307 979 q 307 830 307 922 q 307 627 307 738 q 307 506 307 568 q 307 382 307 444 q 307 174 307 269 q 307 33 307 79 q 297 9 307 19 q 273 -1 288 -1 q 195 -1 241 -1 q 118 -1 149 -1 q 94 9 103 -1 q 84 33 84 19 q 84 174 84 79 q 84 382 84 269 q 84 506 84 444 q 84 627 84 568 q 84 830 84 738 q 84 966 84 922 q 94 990 84 979 q 118 1000 103 1000 m 551 998 q 631 998 585 998 q 675 998 675 998 q 785 977 732 998 q 878 913 837 955 q 937 821 917 873 q 959 712 959 769 q 959 712 959 712 q 937 604 959 656 q 878 511 917 552 q 785 449 837 471 q 675 426 732 426 q 631 426 675 426 q 551 426 585 426 q 537 429 544 426 q 526 435 532 431 q 519 446 522 441 q 517 460 517 453 q 517 524 517 486 q 517 587 517 560 q 519 600 517 594 q 526 610 522 606 q 537 618 532 616 q 551 621 544 621 q 675 621 591 621 q 709 628 693 621 q 738 647 726 635 q 757 677 750 661 q 764 712 764 694 q 764 712 764 712 q 757 747 764 731 q 738 777 750 765 q 709 798 726 791 q 675 804 693 804 q 631 804 675 804 q 551 804 585 804 q 537 807 544 804 q 526 814 532 810 q 519 825 522 819 q 517 837 517 831 q 517 902 517 864 q 517 966 517 939 q 519 978 517 972 q 526 989 522 985 q 537 996 532 994 q 551 998 544 998 z "},"c":{"ha":1012,"x_min":46,"x_max":968,"o":"m 452 997 q 461 985 458 993 q 465 971 465 978 q 465 883 465 933 q 465 804 465 833 q 460 787 465 795 q 445 774 454 779 q 319 665 368 739 q 269 500 269 591 q 317 335 269 410 q 445 227 368 262 q 460 214 454 222 q 465 197 465 206 q 465 118 465 168 q 465 30 465 68 q 461 15 465 23 q 452 4 458 8 q 438 -3 446 -1 q 431 -3 434 -3 q 423 -1 427 -3 q 153 184 260 46 q 46 500 46 323 q 153 817 46 678 q 423 1002 260 955 q 438 1004 430 1005 q 452 997 446 1002 m 693 229 q 741 255 719 240 q 781 289 762 271 q 802 300 789 298 q 823 293 814 300 q 887 250 849 277 q 954 203 926 222 q 963 194 959 199 q 967 180 967 187 q 968 176 968 178 q 966 167 968 171 q 959 155 964 160 q 849 61 911 100 q 716 0 788 22 q 701 0 708 -1 q 686 5 693 1 q 677 18 681 11 q 674 33 674 24 q 674 119 674 69 q 674 198 674 170 q 680 217 674 209 q 693 229 685 225 m 686 1000 q 701 1005 693 1004 q 707 1006 704 1006 q 716 1005 711 1006 q 849 944 787 983 q 958 852 910 906 q 967 827 967 842 q 956 806 966 814 q 898 753 933 784 q 840 700 864 722 q 829 693 836 696 q 815 692 822 692 q 803 696 808 692 q 792 704 798 699 q 747 745 772 727 q 693 776 722 764 q 680 788 685 780 q 674 807 674 796 q 674 886 674 836 q 674 972 674 936 q 677 987 674 981 q 686 1000 681 994 z "},"d":{"ha":1101,"x_min":84,"x_max":1058,"o":"m 307 967 q 307 34 307 655 q 297 9 307 20 q 273 0 288 0 q 118 0 221 0 q 95 9 104 0 q 84 34 84 20 q 84 967 84 345 q 95 990 84 981 q 118 1000 104 1000 q 273 1000 170 1000 q 297 990 288 1000 q 307 967 307 981 m 536 998 q 793 937 677 998 q 981 770 911 875 q 1038 646 1017 713 q 1058 502 1058 578 q 1038 359 1058 427 q 981 233 1017 290 q 793 64 911 126 q 536 0 677 0 q 536 0 536 0 q 536 0 536 0 q 522 5 528 0 q 515 20 515 12 q 515 111 515 52 q 515 202 515 171 q 517 210 515 206 q 522 217 519 214 q 529 221 525 220 q 536 222 532 222 q 749 300 661 222 q 836 502 836 378 q 749 701 836 627 q 536 776 661 776 q 536 776 536 776 q 536 776 536 776 q 529 777 532 776 q 522 781 525 779 q 517 788 519 784 q 515 796 515 792 q 515 887 515 827 q 515 978 515 947 q 522 993 515 986 q 536 998 528 998 z "},"e":{"ha":1002,"x_min":84,"x_max":959,"o":"m 926 0 q 872 0 905 0 q 803 0 840 0 q 662 0 734 0 q 548 0 589 0 q 525 9 534 0 q 515 34 515 19 q 515 111 515 65 q 515 189 515 157 q 525 213 515 202 q 548 222 534 222 q 602 222 570 222 q 671 222 635 222 q 814 222 741 222 q 926 222 886 222 q 949 213 940 222 q 959 189 959 202 q 959 111 959 157 q 959 34 959 65 q 949 9 959 19 q 926 0 940 0 m 307 967 q 307 905 307 943 q 307 817 307 865 q 307 610 307 726 q 307 384 307 495 q 307 175 307 270 q 307 34 307 79 q 297 9 307 19 q 273 0 288 0 q 195 0 241 0 q 118 0 149 0 q 94 9 104 0 q 84 34 84 19 q 84 96 84 57 q 84 183 84 134 q 84 389 84 274 q 84 616 84 505 q 84 826 84 731 q 84 967 84 921 q 94 990 84 981 q 118 1000 104 1000 q 195 1000 149 1000 q 273 1000 241 1000 q 297 990 288 1000 q 307 967 307 981 m 871 389 q 823 389 852 389 q 765 389 796 389 q 646 389 707 389 q 548 389 585 389 q 536 392 541 389 q 525 399 529 395 q 518 410 519 403 q 515 422 515 415 q 515 500 515 454 q 515 578 515 547 q 518 590 515 585 q 525 601 519 597 q 536 609 529 606 q 548 612 541 612 q 595 612 567 612 q 654 612 623 612 q 773 612 712 612 q 871 612 834 612 q 883 609 878 612 q 894 601 890 606 q 902 590 899 597 q 903 578 903 585 q 903 500 903 547 q 903 422 903 454 q 902 410 903 415 q 894 399 899 403 q 883 392 890 395 q 871 389 878 389 m 926 779 q 872 779 905 779 q 803 779 840 779 q 662 779 734 779 q 548 779 589 779 q 525 788 534 779 q 515 811 515 798 q 515 890 515 842 q 515 967 515 936 q 525 990 515 981 q 548 1001 534 1001 q 602 1001 570 1001 q 671 1001 635 1001 q 814 1001 741 1001 q 926 1001 886 1001 q 949 990 940 1001 q 959 967 959 981 q 959 890 959 936 q 959 811 959 842 q 949 788 959 798 q 926 779 940 779 z "},"f":{"ha":1005,"x_min":84,"x_max":959,"o":"m 305 967 q 305 905 305 943 q 305 817 305 865 q 305 610 305 726 q 305 384 305 495 q 305 175 305 270 q 305 34 305 79 q 296 9 305 19 q 273 0 286 0 q 194 0 241 0 q 117 0 148 0 q 94 9 103 0 q 84 34 84 19 q 84 96 84 57 q 84 183 84 134 q 84 389 84 274 q 84 616 84 505 q 84 826 84 731 q 84 967 84 921 q 94 990 84 981 q 117 1000 103 1000 q 194 1000 148 1000 q 273 1000 241 1000 q 296 990 286 1000 q 305 967 305 981 m 867 403 q 821 403 848 403 q 761 403 793 403 q 642 403 703 403 q 545 403 581 403 q 532 406 538 403 q 521 412 526 408 q 514 423 517 418 q 511 437 511 430 q 511 514 511 468 q 511 591 511 560 q 514 605 511 598 q 521 616 517 610 q 532 623 526 620 q 545 625 538 625 q 591 625 564 625 q 651 625 618 625 q 770 625 709 625 q 867 625 831 625 q 880 623 873 625 q 891 616 886 620 q 898 605 895 610 q 901 591 901 598 q 901 514 901 560 q 901 437 901 468 q 898 423 901 430 q 891 412 895 418 q 880 406 886 408 q 867 403 873 403 m 926 779 q 872 779 905 779 q 803 779 840 779 q 661 779 734 779 q 548 779 587 779 q 524 788 533 779 q 514 811 514 798 q 514 890 514 842 q 514 967 514 936 q 524 990 514 981 q 548 1001 533 1001 q 601 1001 570 1001 q 671 1001 633 1001 q 812 1001 741 1001 q 926 1001 886 1001 q 949 990 940 1001 q 959 967 959 981 q 959 890 959 936 q 959 811 959 842 q 949 788 959 798 q 926 779 940 779 z "},"g":{"ha":1035,"x_min":42,"x_max":993,"o":"m 448 997 q 457 985 453 993 q 461 971 461 978 q 461 883 461 933 q 461 804 461 833 q 456 787 461 795 q 441 774 450 779 q 313 665 362 739 q 264 500 264 591 q 313 335 264 410 q 441 227 362 262 q 456 214 450 222 q 461 197 461 206 q 461 118 461 168 q 461 30 461 68 q 457 16 461 23 q 448 4 453 8 q 434 -3 441 -1 q 427 -3 430 -3 q 418 -1 422 -3 q 149 184 255 46 q 42 500 42 323 q 149 817 42 678 q 418 1002 255 955 q 434 1004 426 1005 q 448 997 441 1002 m 993 534 q 993 221 993 430 q 991 212 993 217 q 987 202 990 208 q 930 138 967 175 q 894 102 894 102 q 806 42 853 68 q 705 1 758 16 q 690 0 697 -1 q 677 7 682 1 q 666 18 670 11 q 663 33 663 24 q 663 119 663 69 q 663 198 663 170 q 669 217 663 209 q 682 229 674 225 q 723 251 704 239 q 760 279 742 263 q 768 290 765 283 q 770 304 770 297 q 770 328 770 313 q 770 357 770 343 q 761 380 770 370 q 736 389 750 389 q 694 389 718 389 q 652 389 671 389 q 629 400 639 389 q 620 423 620 410 q 620 479 620 448 q 620 534 620 511 q 629 559 620 548 q 652 568 639 568 q 697 568 671 568 q 754 568 724 568 q 867 568 808 568 q 960 568 925 568 q 983 559 974 568 q 993 534 993 548 m 682 997 q 696 1004 689 1002 q 703 1004 699 1004 q 712 1002 707 1004 q 844 943 783 982 q 954 850 906 903 q 962 826 963 840 q 951 803 962 812 q 894 751 928 783 q 836 699 860 720 q 825 692 830 694 q 811 690 818 689 q 799 693 804 690 q 788 701 792 696 q 742 743 768 724 q 689 774 718 761 q 674 787 680 779 q 669 804 669 795 q 669 883 669 833 q 669 971 669 933 q 673 985 669 978 q 682 997 675 993 z "},"h":{"ha":1032,"x_min":84,"x_max":990,"o":"m 339 612 q 445 612 380 612 q 551 612 511 612 q 575 601 564 612 q 585 578 585 591 q 585 500 585 547 q 585 422 585 454 q 575 399 585 408 q 551 389 564 389 q 445 389 511 389 q 339 389 380 389 q 316 380 326 389 q 307 355 307 369 q 307 259 307 320 q 307 140 307 198 q 307 80 307 109 q 307 34 307 53 q 304 20 307 27 q 296 9 301 15 q 285 3 292 5 q 273 0 279 0 q 195 0 241 0 q 117 0 149 0 q 94 9 103 0 q 84 34 84 19 q 84 96 84 57 q 84 183 84 134 q 84 389 84 274 q 84 616 84 505 q 84 826 84 731 q 84 967 84 921 q 94 990 84 981 q 117 1000 103 1000 q 273 1000 170 1000 q 296 990 286 1000 q 307 967 307 981 q 307 920 307 948 q 307 861 307 892 q 307 742 307 803 q 307 644 307 681 q 316 621 307 631 q 339 612 326 612 m 990 967 q 990 830 990 922 q 990 628 990 739 q 990 506 990 568 q 990 384 990 444 q 990 175 990 270 q 990 34 990 79 q 981 9 990 19 q 956 0 971 0 q 879 0 925 0 q 802 0 833 0 q 777 9 787 0 q 768 34 768 19 q 768 96 768 57 q 768 183 768 134 q 768 389 768 274 q 768 616 768 505 q 768 826 768 731 q 768 967 768 921 q 777 990 768 981 q 802 1000 787 1000 q 879 1000 833 1000 q 956 1000 925 1000 q 981 990 971 1000 q 990 967 990 981 z "},"i":{"ha":391,"x_min":84,"x_max":307,"o":"m 307 967 q 307 830 307 922 q 307 628 307 739 q 307 506 307 568 q 307 384 307 444 q 307 175 307 270 q 307 34 307 79 q 297 9 307 19 q 273 0 288 0 q 195 0 241 0 q 118 0 149 0 q 94 9 104 0 q 84 34 84 19 q 84 96 84 57 q 84 183 84 134 q 84 389 84 274 q 84 616 84 505 q 84 826 84 731 q 84 967 84 921 q 94 990 84 981 q 118 1000 104 1000 q 195 1000 149 1000 q 273 1000 241 1000 q 297 990 288 1000 q 307 967 307 981 z "},"j":{"ha":972,"x_min":45,"x_max":921,"o":"m 240 339 q 279 283 255 309 q 335 241 304 259 q 349 229 343 237 q 353 213 353 221 q 353 133 353 184 q 353 43 353 81 q 349 28 353 35 q 339 16 346 20 q 326 11 332 12 q 309 11 317 9 q 157 95 225 39 q 49 225 91 151 q 45 240 45 232 q 46 250 45 245 q 61 269 49 262 q 125 311 85 285 q 193 353 164 335 q 205 358 198 357 q 218 357 212 358 q 231 350 225 355 q 240 339 236 346 m 921 437 q 917 377 921 407 q 903 319 911 347 q 869 232 891 274 q 818 156 848 191 q 765 102 793 126 q 704 57 736 77 q 636 23 671 37 q 563 0 600 8 q 563 0 563 0 q 563 0 563 0 q 562 0 563 0 q 562 1 562 1 q 562 45 562 9 q 562 121 562 80 q 562 172 562 148 q 562 213 562 197 q 566 229 562 221 q 579 241 571 237 q 665 323 632 271 q 699 437 699 374 q 699 529 699 437 q 699 727 699 620 q 699 864 699 799 q 699 966 699 929 q 701 978 699 972 q 708 989 703 985 q 719 997 712 994 q 731 998 724 998 q 810 998 764 998 q 887 998 856 998 q 899 997 894 998 q 910 989 906 994 q 918 978 916 985 q 921 966 921 972 q 921 864 921 929 q 921 727 921 799 q 921 529 921 620 q 921 437 921 437 z "},"k":{"ha":1057,"x_min":85,"x_max":1013,"o":"m 307 967 q 307 830 307 922 q 307 628 307 739 q 307 506 307 568 q 307 384 307 444 q 307 175 307 270 q 307 34 307 79 q 297 9 307 19 q 274 0 288 0 q 197 0 243 0 q 118 0 149 0 q 95 9 104 0 q 85 34 85 19 q 85 96 85 57 q 85 183 85 134 q 85 389 85 274 q 85 616 85 505 q 85 826 85 731 q 85 967 85 921 q 95 990 85 981 q 118 1000 104 1000 q 197 1000 149 1000 q 274 1000 243 1000 q 297 990 288 1000 q 307 967 307 981 m 979 0 q 878 0 935 0 q 792 0 821 0 q 776 4 784 0 q 765 15 769 8 q 743 46 757 27 q 713 91 730 66 q 651 183 684 134 q 601 258 620 231 q 595 281 594 269 q 606 301 597 293 q 662 354 628 321 q 722 408 697 385 q 734 415 727 412 q 749 416 741 418 q 761 412 755 415 q 772 401 768 408 q 804 354 785 382 q 846 292 823 326 q 932 163 887 231 q 1008 52 978 96 q 1013 35 1012 45 q 1013 34 1013 34 q 1009 18 1013 26 q 997 5 1005 9 q 979 0 989 0 m 993 943 q 929 883 966 917 q 852 812 892 849 q 699 671 776 742 q 571 555 621 600 q 555 545 564 548 q 536 548 544 544 q 521 560 526 552 q 515 579 515 568 q 515 697 515 632 q 515 791 515 762 q 518 803 515 798 q 526 815 521 810 q 557 844 537 825 q 600 882 576 861 q 669 945 635 914 q 719 991 703 977 q 728 998 723 996 q 741 1000 735 1000 q 840 1000 769 1000 q 971 1000 911 1000 q 990 994 981 1000 q 1002 979 998 989 q 1004 959 1005 970 q 993 943 1001 949 z "},"l":{"ha":996,"x_min":84,"x_max":955,"o":"m 921 0 q 865 0 899 0 q 793 0 833 0 q 647 0 722 0 q 529 0 571 0 q 506 9 515 0 q 496 34 496 19 q 496 111 496 65 q 496 189 496 157 q 506 213 496 202 q 529 222 515 222 q 585 222 552 222 q 658 222 618 222 q 804 222 728 222 q 921 222 880 222 q 945 213 935 222 q 955 189 955 202 q 955 111 955 157 q 955 34 955 65 q 945 9 955 19 q 921 0 935 0 m 334 967 q 334 830 334 922 q 334 628 334 739 q 334 506 334 568 q 334 384 334 444 q 334 175 334 270 q 334 34 334 79 q 331 20 334 27 q 324 9 328 15 q 313 3 320 5 q 301 0 308 0 q 209 0 264 0 q 117 0 153 0 q 104 3 111 0 q 94 9 99 5 q 87 20 90 15 q 84 34 84 27 q 84 96 84 57 q 84 183 84 134 q 84 389 84 274 q 84 616 84 505 q 84 826 84 731 q 84 967 84 921 q 87 979 84 974 q 94 990 90 986 q 104 998 99 996 q 117 1000 111 1000 q 209 1000 153 1000 q 301 1000 264 1000 q 313 998 308 1000 q 324 990 320 996 q 331 979 328 986 q 334 967 334 974 z "},"m":{"ha":1318,"x_min":83,"x_max":1276,"o":"m 1270 437 q 1270 363 1270 403 q 1270 285 1270 326 q 1270 141 1270 210 q 1270 34 1270 72 q 1259 9 1270 19 q 1236 0 1249 0 q 1158 0 1204 0 q 1080 0 1112 0 q 1057 9 1066 0 q 1047 34 1047 19 q 1047 117 1047 68 q 1047 184 1047 164 q 1048 194 1047 190 q 1051 202 1050 198 q 1067 228 1057 212 q 1090 266 1077 244 q 1147 358 1116 307 q 1207 454 1180 410 q 1223 468 1213 464 q 1245 468 1234 472 q 1263 456 1256 465 q 1270 437 1270 448 m 305 967 q 305 905 305 943 q 305 817 305 865 q 305 610 305 726 q 305 384 305 495 q 305 175 305 270 q 305 34 305 79 q 296 9 305 19 q 273 0 286 0 q 194 0 240 0 q 117 0 148 0 q 94 9 103 0 q 83 34 83 19 q 83 96 83 57 q 83 183 83 134 q 83 389 83 274 q 83 616 83 505 q 83 826 83 731 q 83 967 83 921 q 94 990 83 981 q 117 1000 103 1000 q 194 1000 148 1000 q 273 1000 240 1000 q 296 990 286 1000 q 305 967 305 981 m 1271 952 q 1229 884 1253 925 q 1175 796 1204 845 q 1051 597 1119 707 q 917 380 983 487 q 791 178 849 270 q 703 34 734 84 q 690 22 697 26 q 673 18 682 18 q 656 23 665 18 q 644 35 650 27 q 597 118 625 69 q 547 205 570 165 q 524 244 533 227 q 509 269 514 260 q 506 277 507 273 q 505 286 505 281 q 505 316 505 296 q 505 363 505 336 q 505 477 505 412 q 505 597 505 541 q 511 617 505 608 q 529 629 518 627 q 551 628 540 632 q 567 613 562 624 q 612 536 589 576 q 651 468 635 496 q 663 456 656 460 q 680 450 671 450 q 696 454 689 450 q 708 467 704 458 q 758 547 728 499 q 822 650 788 595 q 947 850 884 751 q 1031 987 1008 951 q 1043 998 1036 994 q 1059 1002 1051 1002 q 1143 1002 1088 1002 q 1242 1002 1198 1002 q 1260 998 1252 1002 q 1272 986 1267 994 q 1276 968 1276 978 q 1271 952 1275 960 z "},"n":{"ha":1073,"x_min":84,"x_max":1031,"o":"m 1027 18 q 1015 5 1023 9 q 997 0 1006 0 q 891 0 949 0 q 806 0 833 0 q 789 4 798 0 q 779 14 783 7 q 743 62 766 30 q 686 141 719 96 q 544 339 625 224 q 377 568 461 453 q 217 789 292 686 q 102 949 142 892 q 95 967 96 958 q 99 985 94 977 q 111 998 103 993 q 129 1002 119 1002 q 233 1002 175 1002 q 320 1002 292 1002 q 335 1000 328 1002 q 347 989 343 996 q 430 875 369 959 q 570 681 491 791 q 658 560 613 623 q 747 435 703 496 q 909 213 833 316 q 1024 53 983 110 q 1031 35 1029 45 q 1031 33 1031 34 q 1027 18 1031 26 m 145 534 q 235 410 187 476 q 301 319 283 342 q 305 309 304 315 q 307 300 307 305 q 307 267 307 288 q 307 222 307 247 q 307 121 307 175 q 307 34 307 66 q 297 9 307 19 q 274 0 288 0 q 195 0 241 0 q 118 0 149 0 q 95 9 104 0 q 84 34 84 19 q 84 163 84 77 q 84 338 84 247 q 84 431 84 385 q 84 514 84 477 q 91 534 84 525 q 107 547 98 543 q 129 547 118 549 q 145 534 138 543 m 769 772 q 769 863 769 798 q 769 970 769 928 q 779 993 769 983 q 803 1002 788 1002 q 880 1002 834 1002 q 958 1002 926 1002 q 982 993 972 1002 q 991 970 991 983 q 991 556 991 831 q 985 537 991 545 q 968 525 979 528 q 948 525 958 522 q 930 537 937 529 q 841 662 890 595 q 776 753 792 728 q 770 762 772 757 q 769 772 769 766 z "},"o":{"ha":1115,"x_min":42,"x_max":1088,"o":"m 448 997 q 457 985 453 993 q 460 971 460 978 q 460 883 460 933 q 460 804 460 833 q 454 787 460 795 q 441 774 449 779 q 313 665 362 739 q 264 500 264 591 q 313 335 264 410 q 441 227 362 262 q 454 214 449 222 q 460 197 460 206 q 460 118 460 168 q 460 30 460 68 q 457 15 460 23 q 448 4 453 8 q 433 -3 441 -1 q 426 -3 430 -3 q 418 -1 422 -3 q 148 184 255 46 q 42 500 42 323 q 148 817 42 678 q 418 1002 255 955 q 433 1004 426 1005 q 448 997 441 1002 m 682 997 q 696 1004 688 1002 q 703 1004 700 1004 q 711 1002 707 1004 q 981 817 873 955 q 1088 500 1088 678 q 981 184 1088 323 q 711 -1 873 46 q 696 -3 704 -4 q 682 4 688 -1 q 673 16 675 8 q 669 30 669 23 q 669 118 669 68 q 669 197 669 168 q 674 214 669 206 q 689 227 680 222 q 815 336 766 262 q 865 500 865 410 q 817 666 865 591 q 689 774 766 739 q 674 787 680 779 q 669 804 669 795 q 669 883 669 833 q 669 971 669 933 q 673 986 669 978 q 682 997 675 993 z "},"p":{"ha":1053,"x_min":84,"x_max":1010,"o":"m 118 1000 q 195 1000 149 1000 q 274 1000 243 1000 q 297 990 288 1000 q 307 967 307 981 q 307 830 307 922 q 307 628 307 739 q 307 506 307 568 q 307 384 307 444 q 307 175 307 270 q 307 34 307 79 q 297 9 307 19 q 274 0 288 0 q 195 0 243 0 q 118 0 149 0 q 95 9 104 0 q 84 34 84 19 q 84 96 84 57 q 84 183 84 134 q 84 389 84 274 q 84 616 84 505 q 84 826 84 731 q 84 967 84 921 q 95 990 84 981 q 118 1000 104 1000 m 549 1000 q 674 1000 590 1000 q 803 974 741 1000 q 911 901 864 948 q 985 791 959 853 q 1010 662 1010 730 q 1010 662 1010 662 q 985 533 1010 595 q 911 425 959 472 q 803 351 864 377 q 674 326 741 326 q 628 326 674 326 q 549 326 583 326 q 525 335 534 326 q 515 359 515 345 q 515 437 515 391 q 515 514 515 483 q 525 538 515 529 q 549 548 534 548 q 674 548 590 548 q 718 556 696 548 q 754 582 738 566 q 780 618 770 598 q 788 662 788 640 q 788 662 788 662 q 780 707 788 685 q 754 743 770 727 q 718 768 738 760 q 674 777 696 777 q 628 777 674 777 q 549 777 583 777 q 525 787 534 777 q 515 810 515 796 q 515 888 515 842 q 515 966 515 935 q 525 989 515 979 q 549 1000 534 1000 z "},"q":{"ha":1199,"x_min":46,"x_max":1154,"o":"m 450 997 q 461 985 457 993 q 464 971 464 978 q 464 883 464 933 q 464 804 464 833 q 458 787 464 795 q 445 774 453 779 q 317 665 366 739 q 267 500 267 591 q 317 335 267 410 q 445 227 366 262 q 458 214 453 222 q 464 197 464 206 q 464 118 464 168 q 464 30 464 68 q 461 15 464 23 q 452 4 457 8 q 437 -3 445 -1 q 430 -3 434 -3 q 422 -1 426 -3 q 152 184 259 46 q 46 500 46 323 q 152 817 46 678 q 422 1002 259 955 q 437 1004 430 1005 q 450 997 445 1002 m 876 77 q 799 31 840 52 q 715 -1 758 11 q 700 -3 708 -4 q 686 4 692 -1 q 677 16 680 8 q 673 30 673 23 q 673 118 673 68 q 673 197 673 168 q 678 214 673 206 q 693 227 684 222 q 819 336 770 262 q 869 500 869 410 q 819 666 869 591 q 693 774 770 739 q 678 787 684 779 q 673 804 673 795 q 673 883 673 833 q 673 971 673 933 q 675 986 673 978 q 686 997 680 993 q 700 1004 692 1002 q 707 1004 703 1004 q 715 1002 711 1004 q 985 817 878 955 q 1092 500 1092 678 q 1080 391 1092 445 q 1047 289 1069 338 q 1044 269 1042 279 q 1057 250 1047 258 q 1111 205 1080 231 q 1142 179 1142 179 q 1154 157 1153 171 q 1154 153 1154 155 q 1146 133 1154 142 q 1097 73 1127 109 q 1047 12 1067 37 q 1025 0 1039 1 q 1001 8 1012 -1 q 970 33 1001 8 q 917 77 940 58 q 897 84 907 84 q 876 77 884 84 z "},"r":{"ha":1053,"x_min":84,"x_max":1009,"o":"m 117 998 q 195 998 148 998 q 273 998 241 998 q 296 989 286 998 q 307 964 307 979 q 307 902 307 941 q 307 815 307 864 q 307 609 307 724 q 307 382 307 494 q 307 172 307 267 q 307 31 307 77 q 296 8 307 18 q 273 -1 286 -1 q 195 -1 241 -1 q 117 -1 148 -1 q 94 8 103 -1 q 84 31 84 18 q 84 94 84 56 q 84 182 84 133 q 84 388 84 273 q 84 614 84 503 q 84 823 84 728 q 84 964 84 920 q 94 989 84 979 q 117 998 103 998 m 850 212 q 913 138 872 186 q 986 53 952 92 q 993 35 991 46 q 990 18 994 26 q 978 3 986 8 q 960 -1 970 -1 q 846 -1 909 -1 q 755 -1 784 -1 q 742 1 749 -1 q 730 9 735 4 q 680 69 713 28 q 616 144 646 109 q 609 161 610 151 q 612 179 608 171 q 624 194 616 189 q 642 198 632 198 q 663 198 655 198 q 673 198 673 198 q 745 205 709 198 q 815 221 781 210 q 834 221 825 224 q 850 212 844 218 m 548 997 q 673 997 589 997 q 802 971 739 997 q 910 898 863 945 q 983 789 958 852 q 1009 661 1009 727 q 1009 661 1009 661 q 983 532 1009 594 q 910 422 958 469 q 802 350 863 374 q 673 324 739 324 q 628 324 673 324 q 548 324 582 324 q 524 334 534 324 q 514 357 514 343 q 514 435 514 388 q 514 513 514 481 q 524 536 514 526 q 548 547 534 547 q 673 547 589 547 q 716 555 696 547 q 754 579 738 563 q 779 617 769 595 q 787 661 787 637 q 787 661 787 661 q 779 704 787 684 q 754 742 769 726 q 716 766 738 757 q 673 774 696 774 q 628 774 673 774 q 548 774 582 774 q 524 785 534 774 q 514 808 514 795 q 514 886 514 840 q 514 964 514 932 q 524 987 514 978 q 548 997 534 997 z "},"s":{"ha":970,"x_min":42,"x_max":943,"o":"m 362 974 q 362 890 362 939 q 362 811 362 841 q 355 792 362 802 q 340 780 350 784 q 339 780 340 780 q 339 780 339 780 q 293 751 312 769 q 273 704 274 734 q 296 656 271 670 q 347 632 319 642 q 430 616 387 621 q 514 609 473 612 q 628 600 564 605 q 749 574 692 594 q 884 484 829 545 q 943 309 939 422 q 943 298 943 304 q 926 197 943 245 q 868 102 907 144 q 768 33 831 62 q 606 -7 704 3 q 604 -7 605 -7 q 593 -5 598 -7 q 581 1 586 -3 q 574 12 576 7 q 570 26 570 19 q 570 106 570 58 q 570 182 570 152 q 579 205 570 195 q 600 216 587 214 q 625 220 613 217 q 648 225 637 221 q 704 255 686 235 q 720 302 722 275 q 696 353 719 339 q 646 372 673 366 q 570 382 608 380 q 499 387 530 385 q 359 403 431 391 q 229 439 288 414 q 96 541 146 476 q 52 713 47 606 q 130 903 56 829 q 320 1006 205 978 q 335 1006 328 1008 q 349 1000 343 1004 q 358 987 355 994 q 362 974 362 981 m 321 8 q 170 57 232 26 q 54 132 109 87 q 46 142 49 136 q 42 155 42 148 q 42 157 42 156 q 43 168 42 163 q 50 179 46 174 q 103 240 72 203 q 155 298 134 275 q 175 311 163 308 q 198 305 187 312 q 259 269 221 290 q 338 235 298 247 q 355 222 349 232 q 362 202 362 213 q 362 125 362 172 q 362 41 362 76 q 358 27 362 34 q 350 15 355 20 q 336 8 343 11 q 321 8 330 7 m 608 1015 q 768 971 711 1001 q 863 903 823 941 q 869 892 868 898 q 872 879 872 886 q 869 865 872 872 q 863 854 868 860 q 806 800 840 833 q 749 746 772 768 q 727 738 739 738 q 705 745 715 736 q 661 772 686 761 q 597 791 636 784 q 578 802 586 793 q 570 823 570 811 q 570 901 570 853 q 570 982 570 948 q 574 996 570 989 q 582 1006 576 1002 q 594 1013 587 1012 q 604 1015 598 1015 q 608 1015 606 1015 z "},"t":{"ha":1027,"x_min":84,"x_max":985,"o":"m 457 571 q 534 571 488 571 q 612 571 581 571 q 636 562 625 571 q 646 538 646 552 q 646 469 646 511 q 646 376 646 426 q 646 182 646 281 q 646 34 646 83 q 636 9 646 19 q 612 0 625 0 q 534 0 581 0 q 457 0 488 0 q 433 9 442 0 q 423 34 423 19 q 423 538 423 202 q 433 562 423 552 q 457 571 442 571 m 84 811 q 84 890 84 842 q 84 967 84 936 q 94 990 84 981 q 117 1000 103 1000 q 240 1000 159 1000 q 420 1000 323 1000 q 529 1000 473 1000 q 637 1000 585 1000 q 823 1000 739 1000 q 952 1000 909 1000 q 975 990 966 1000 q 985 967 985 981 q 985 890 985 936 q 985 811 985 842 q 975 788 985 798 q 952 779 966 779 q 894 779 929 779 q 815 779 860 779 q 632 779 734 779 q 431 779 530 779 q 244 779 330 779 q 117 779 160 779 q 94 788 103 779 q 84 811 84 798 z "},"u":{"ha":1053,"x_min":83,"x_max":1010,"o":"m 305 966 q 305 427 305 787 q 339 313 305 365 q 425 232 372 262 q 438 220 433 228 q 442 202 442 212 q 442 123 442 175 q 442 34 442 71 q 438 19 442 26 q 429 7 435 11 q 415 0 422 1 q 399 1 407 -1 q 172 164 260 47 q 83 427 83 281 q 83 441 83 427 q 83 476 83 454 q 83 586 83 519 q 83 724 83 654 q 83 864 83 798 q 83 966 83 930 q 85 979 83 972 q 94 990 88 985 q 104 997 98 994 q 117 1000 110 1000 q 194 1000 148 1000 q 273 1000 241 1000 q 285 997 279 1000 q 296 990 292 994 q 302 979 301 985 q 305 966 305 972 m 1010 966 q 1010 864 1010 930 q 1010 724 1010 798 q 1010 648 1010 686 q 1010 576 1010 609 q 1010 469 1010 511 q 1010 427 1010 427 q 921 164 1010 281 q 694 1 833 46 q 685 0 689 0 q 678 0 681 0 q 665 7 671 1 q 654 18 658 11 q 651 34 651 26 q 651 123 651 71 q 651 202 651 175 q 655 220 651 212 q 669 232 661 228 q 754 313 722 262 q 788 427 788 365 q 788 441 788 427 q 788 476 788 454 q 788 586 788 519 q 788 724 788 654 q 788 864 788 798 q 788 966 788 930 q 791 979 788 972 q 798 990 792 985 q 808 997 802 994 q 821 1000 814 1000 q 899 1000 852 1000 q 977 1000 945 1000 q 989 997 983 1000 q 1000 990 996 994 q 1008 979 1005 985 q 1010 966 1010 972 z "},"v":{"ha":1152,"x_min":45,"x_max":1107,"o":"m 692 0 q 524 0 636 0 q 507 4 515 0 q 496 15 500 8 q 490 30 491 22 q 492 46 490 38 q 555 199 514 99 q 644 415 597 300 q 694 538 669 476 q 745 661 720 601 q 825 856 789 769 q 875 979 860 944 q 887 994 879 989 q 906 1000 895 1000 q 1074 1000 962 1000 q 1089 997 1082 1000 q 1101 986 1097 993 q 1107 970 1107 978 q 1107 967 1107 968 q 1105 955 1107 960 q 1042 802 1084 901 q 954 585 1001 701 q 860 357 907 471 q 779 157 814 243 q 745 75 760 110 q 723 20 731 41 q 711 5 719 11 q 692 0 701 0 m 285 983 q 316 924 296 963 q 362 841 338 886 q 435 705 399 772 q 486 612 472 639 q 490 597 490 605 q 488 583 491 590 q 454 500 477 556 q 411 397 431 444 q 400 382 408 388 q 382 376 392 377 q 365 380 373 376 q 351 393 355 385 q 307 477 332 429 q 250 581 279 526 q 137 788 194 682 q 49 951 80 892 q 45 967 45 959 q 50 983 45 977 q 62 996 54 991 q 79 1000 69 1000 q 174 1000 121 1000 q 255 1000 227 1000 q 273 996 264 1000 q 285 983 281 991 z "},"w":{"ha":1487,"x_min":45,"x_max":1440,"o":"m 838 955 q 795 806 823 905 q 734 591 768 707 q 700 468 718 530 q 665 347 682 407 q 609 149 633 237 q 572 23 583 62 q 562 7 570 14 q 541 -1 552 0 q 464 -1 513 -1 q 378 -3 415 -1 q 363 1 372 -3 q 351 11 357 4 q 346 24 347 18 q 346 41 345 33 q 369 121 355 72 q 396 218 382 168 q 435 354 418 293 q 453 415 453 415 q 453 415 453 415 q 457 429 453 415 q 468 467 460 442 q 500 583 480 511 q 543 730 521 655 q 583 873 564 806 q 612 974 602 940 q 624 991 614 985 q 644 998 632 998 q 806 998 697 998 q 821 994 814 998 q 831 985 827 990 q 838 971 837 978 q 838 955 840 963 m 1143 0 q 1065 0 1114 0 q 986 0 1016 0 q 967 7 975 0 q 955 23 958 12 q 943 60 949 38 q 928 104 936 80 q 899 194 913 149 q 878 258 884 239 q 876 267 876 262 q 878 277 876 273 q 905 374 884 302 q 941 503 925 446 q 952 519 944 513 q 970 528 959 526 q 987 525 979 529 q 1002 513 997 521 q 1010 500 1006 506 q 1017 488 1013 494 q 1032 475 1023 479 q 1050 472 1040 471 q 1067 480 1061 473 q 1078 496 1076 487 q 1123 656 1096 560 q 1173 836 1150 751 q 1198 918 1187 882 q 1214 977 1207 955 q 1226 993 1217 986 q 1245 1000 1234 1000 q 1324 1000 1275 1000 q 1408 1000 1371 1000 q 1423 997 1415 1000 q 1434 987 1430 993 q 1440 972 1439 981 q 1440 967 1440 970 q 1439 958 1440 963 q 1397 808 1426 907 q 1336 594 1369 709 q 1302 471 1320 533 q 1267 350 1284 408 q 1211 152 1236 240 q 1175 24 1185 62 q 1162 7 1172 14 q 1143 0 1154 0 m 273 975 q 301 886 283 943 q 327 806 320 829 q 328 796 328 802 q 327 787 328 792 q 296 674 319 760 q 251 515 271 590 q 239 499 247 506 q 218 491 231 492 q 199 498 208 491 q 187 515 190 505 q 163 590 175 549 q 136 675 149 632 q 85 833 110 757 q 46 956 60 910 q 45 966 45 960 q 45 971 45 968 q 50 986 46 979 q 62 996 56 991 q 77 1000 69 1000 q 163 1000 114 1000 q 241 1000 212 1000 q 260 993 252 1000 q 273 975 270 986 z "},"x":{"ha":1027,"x_min":45,"x_max":981,"o":"m 79 53 q 152 159 110 96 q 224 259 195 220 q 235 270 228 266 q 251 274 243 274 q 266 270 259 274 q 278 259 273 266 q 328 187 300 228 q 373 123 357 146 q 378 104 378 115 q 373 85 378 94 q 347 49 362 69 q 323 15 332 28 q 312 4 319 8 q 296 0 304 0 q 210 0 267 0 q 106 0 153 0 q 90 5 96 0 q 76 18 81 9 q 73 35 72 26 q 79 53 73 45 m 296 986 q 335 929 309 967 q 391 849 361 892 q 475 730 435 785 q 513 674 513 674 q 513 674 513 674 q 648 480 559 610 q 648 480 648 480 q 697 411 648 480 q 804 256 745 343 q 883 145 845 199 q 948 53 921 90 q 954 35 952 45 q 949 18 954 26 q 937 5 945 9 q 920 0 929 0 q 817 0 873 0 q 730 0 758 0 q 715 4 722 0 q 703 15 708 8 q 669 64 692 31 q 614 141 646 96 q 476 339 556 225 q 317 567 397 453 q 163 788 235 685 q 52 948 91 891 q 45 964 46 955 q 45 967 45 966 q 49 982 46 975 q 61 996 53 990 q 79 1000 69 1000 q 183 1000 125 1000 q 269 1000 240 1000 q 283 997 277 1000 q 296 986 292 993 m 975 948 q 887 822 940 897 q 803 701 836 747 q 791 692 799 694 q 776 688 784 688 q 761 692 768 688 q 749 701 753 694 q 699 773 727 732 q 654 838 670 814 q 647 857 647 846 q 654 876 647 867 q 693 932 669 898 q 731 986 718 967 q 742 997 735 993 q 758 1000 750 1000 q 844 1000 785 1000 q 948 1000 901 1000 q 964 996 958 1000 q 977 982 972 990 q 981 967 981 975 q 981 964 981 966 q 975 948 981 955 z "},"y":{"ha":1046,"x_min":46,"x_max":1000,"o":"m 292 985 q 345 902 308 959 q 425 774 380 844 q 472 697 448 736 q 521 621 496 658 q 616 469 575 533 q 655 406 655 406 q 655 343 655 406 q 655 206 655 282 q 655 110 655 156 q 655 34 655 62 q 646 9 655 19 q 623 0 636 0 q 544 0 590 0 q 467 0 498 0 q 453 3 460 0 q 442 9 448 5 q 435 20 438 15 q 433 34 433 27 q 433 342 433 136 q 404 388 433 342 q 331 505 374 434 q 281 583 308 541 q 228 669 255 625 q 129 827 176 751 q 52 949 80 903 q 46 966 46 956 q 46 967 46 967 q 50 983 46 975 q 62 996 54 991 q 80 1000 71 1000 q 180 1000 125 1000 q 263 1000 235 1000 q 279 996 273 1000 q 292 985 288 991 m 994 949 q 936 856 970 911 q 867 746 901 799 q 833 692 849 718 q 804 647 817 666 q 792 635 800 639 q 776 631 785 631 q 760 635 768 631 q 749 647 753 639 q 699 726 727 681 q 656 793 671 769 q 651 811 651 802 q 656 829 651 821 q 705 907 674 856 q 754 985 738 959 q 766 996 758 991 q 783 1000 774 1000 q 867 1000 811 1000 q 966 1000 922 1000 q 983 996 975 1000 q 996 983 991 991 q 1000 966 1000 975 q 994 949 1000 956 z "},"z":{"ha":1147,"x_min":45,"x_max":1103,"o":"m 1002 990 q 1044 947 1017 975 q 1093 898 1073 918 q 1101 887 1099 894 q 1103 875 1103 882 q 1100 861 1103 868 q 1093 850 1099 856 q 960 722 1054 811 q 757 522 868 631 q 639 407 699 465 q 524 294 579 349 q 338 113 418 191 q 231 8 256 34 q 221 1 227 4 q 208 -1 214 -1 q 189 -1 199 -1 q 170 -1 178 -1 q 157 1 163 -1 q 146 9 151 4 q 103 52 132 23 q 54 100 76 80 q 47 111 50 106 q 45 125 45 118 q 47 137 45 132 q 56 148 50 144 q 187 277 95 187 q 391 476 281 368 q 509 591 449 533 q 625 705 570 650 q 811 886 730 807 q 917 990 891 964 q 928 997 922 994 q 940 1000 935 1000 q 959 1000 949 1000 q 979 1000 970 1000 q 991 997 985 1000 q 1002 990 997 994 m 761 222 q 1004 222 841 222 q 1027 212 1017 222 q 1036 189 1036 202 q 1036 145 1036 170 q 1036 95 1036 121 q 1036 28 1036 58 q 1036 -1 1036 -1 q 970 -1 1036 -1 q 818 -1 903 -1 q 703 -1 760 -1 q 601 -1 644 -1 q 582 5 591 -1 q 570 20 574 11 q 568 39 566 30 q 578 57 570 49 q 667 145 618 96 q 736 213 718 193 q 747 220 742 217 q 761 222 754 222 m 570 941 q 479 853 528 902 q 410 787 430 806 q 399 779 406 781 q 387 777 393 777 q 283 777 355 777 q 167 777 212 777 q 144 787 153 777 q 133 810 133 796 q 133 888 133 841 q 133 966 133 935 q 144 989 133 979 q 167 1000 153 1000 q 545 1000 293 1000 q 564 993 556 1000 q 576 978 572 987 q 579 959 581 968 q 570 941 576 949 z "},"|":{"ha":1069,"x_min":42,"x_max":1042,"o":"m 1036 571 q 1040 536 1039 553 q 1042 500 1042 518 q 1040 460 1042 479 q 1035 419 1039 439 q 623 419 898 419 q 623 7 623 282 q 582 1 602 3 q 541 0 562 0 q 506 1 524 0 q 471 5 488 3 q 471 294 471 102 q 747 571 563 387 q 892 571 819 571 q 1036 571 964 571 m 262 85 q 454 278 326 151 q 454 8 454 189 q 353 37 401 16 q 262 85 305 57 m 739 76 q 726 35 735 62 q 686 22 707 27 q 644 11 665 15 q 699 113 662 45 q 640 171 680 132 q 787 258 724 195 q 872 403 848 320 q 1032 403 925 403 q 935 191 1009 285 q 755 47 861 98 q 747 62 751 56 q 739 76 743 69 m 642 38 q 651 81 646 58 q 655 106 655 106 q 651 118 655 106 q 642 142 646 132 q 642 144 642 142 q 643 145 643 145 q 644 145 644 145 q 647 145 646 145 q 669 122 655 136 q 681 109 681 109 q 669 83 681 109 q 646 37 656 57 q 644 35 646 37 q 643 35 644 35 q 642 37 642 35 q 642 38 642 38 m 841 901 q 898 852 871 878 q 947 793 924 825 q 248 95 713 560 q 190 144 217 118 q 141 201 164 171 q 491 551 316 376 q 841 901 666 726 m 637 190 q 637 403 637 260 q 852 403 709 403 q 772 270 829 327 q 637 190 715 213 m 212 403 q 225 363 217 384 q 244 327 233 345 q 132 214 206 290 q 81 304 102 256 q 52 403 61 351 q 132 403 91 403 q 212 403 171 403 m 231 403 q 320 403 260 403 q 258 342 300 382 q 243 372 250 355 q 231 403 236 387 m 623 705 q 336 419 526 610 q 47 419 240 419 q 43 460 45 439 q 42 500 42 479 q 43 536 42 518 q 46 571 45 553 q 471 571 189 571 q 471 996 471 712 q 506 998 488 997 q 541 1000 524 1000 q 582 998 562 1000 q 623 994 602 997 q 623 849 623 921 q 623 705 623 777 m 1034 587 q 875 587 981 587 q 861 628 869 608 q 842 667 853 648 q 956 780 880 704 q 1005 689 985 736 q 1034 587 1025 640 m 395 888 q 450 831 412 869 q 297 742 362 808 q 209 587 232 675 q 49 587 156 587 q 148 808 71 711 q 336 956 225 906 q 354 925 342 945 q 368 968 358 940 q 407 982 387 977 q 449 991 427 987 q 422 940 435 966 q 395 888 408 914 m 854 587 q 764 587 825 587 q 829 652 785 609 q 844 621 837 637 q 854 587 850 604 m 454 587 q 228 587 380 587 q 312 730 251 669 q 454 814 373 791 q 454 700 454 757 q 454 587 454 643 m 827 910 q 637 722 764 848 q 637 990 637 811 q 738 960 690 981 q 827 910 785 940 m 452 963 q 442 920 448 943 q 437 895 437 895 q 442 883 437 895 q 450 859 446 869 q 450 857 450 859 q 449 856 450 856 q 448 856 449 856 q 446 856 446 856 q 425 879 437 867 q 412 892 412 892 q 425 918 412 892 q 446 964 437 944 q 448 966 446 966 q 449 966 449 966 q 450 964 450 966 q 452 963 452 963 z "},"~":{"ha":952,"x_min":43,"x_max":910,"o":"m 335 450 q 323 456 328 453 q 312 456 317 457 q 281 431 293 449 q 266 393 270 415 q 255 373 264 381 q 233 366 245 366 q 156 366 202 366 q 76 368 109 368 q 62 370 69 368 q 52 378 57 373 q 45 391 47 384 q 43 400 43 395 q 43 404 43 401 q 107 570 54 498 q 244 667 161 640 q 316 680 281 680 q 346 677 331 680 q 442 646 393 670 q 461 635 452 640 q 480 624 471 629 q 525 597 503 609 q 566 571 545 583 q 572 567 570 570 q 579 563 576 566 q 598 555 589 559 q 616 547 606 551 q 628 545 623 545 q 642 548 635 547 q 673 572 662 555 q 688 612 684 590 q 699 631 689 624 q 720 639 708 639 q 798 639 751 639 q 878 637 845 637 q 891 635 884 637 q 902 627 897 632 q 909 614 906 621 q 910 604 910 609 q 910 601 910 602 q 846 435 901 507 q 709 336 792 363 q 628 323 667 323 q 624 323 627 323 q 545 336 585 324 q 545 336 545 336 q 532 340 538 339 q 519 346 526 343 q 503 354 511 350 q 486 362 495 357 q 475 368 480 365 q 463 374 468 372 q 425 397 442 385 q 389 419 407 408 q 387 422 388 419 q 361 437 374 429 q 335 450 349 444 z "},"":{"ha":987,"x_min":42,"x_max":945,"o":"m 940 823 q 945 807 945 815 q 945 802 945 804 q 933 783 943 789 q 795 686 887 750 q 773 682 784 680 q 754 694 761 684 q 692 760 716 746 q 629 773 667 773 q 590 765 610 773 q 544 719 568 755 q 519 674 529 699 q 503 620 510 650 q 490 555 499 598 q 631 555 537 555 q 651 547 643 555 q 661 526 661 538 q 661 467 661 506 q 651 446 661 454 q 631 438 643 438 q 467 438 576 438 q 423 227 452 368 q 712 227 519 227 q 726 218 720 227 q 732 198 732 210 q 732 28 732 141 q 726 8 732 16 q 712 0 720 0 q 62 0 495 0 q 47 8 53 0 q 42 28 42 16 q 42 198 42 85 q 47 218 42 210 q 62 227 53 227 q 193 227 106 227 q 235 438 206 297 q 199 438 224 438 q 179 446 189 438 q 171 467 171 454 q 171 526 171 487 q 179 547 171 538 q 199 555 189 555 q 259 555 220 555 q 282 665 267 591 q 311 762 292 718 q 357 848 330 808 q 498 971 423 943 q 629 1000 572 1000 q 819 947 750 1000 q 940 823 890 892 z "},"":{"ha":954,"x_min":43,"x_max":910,"o":"m 798 464 q 819 454 810 464 q 827 433 827 446 q 827 366 827 411 q 819 345 827 354 q 798 336 810 336 q 654 336 750 336 q 654 279 654 317 q 798 279 701 279 q 819 270 810 279 q 827 250 827 262 q 827 182 827 227 q 819 161 827 170 q 798 152 810 152 q 654 152 750 152 q 654 28 654 111 q 646 8 654 16 q 625 0 637 0 q 456 0 570 0 q 437 8 445 0 q 429 28 429 16 q 429 152 429 69 q 277 152 378 152 q 256 161 264 152 q 248 182 248 170 q 248 250 248 205 q 256 270 248 262 q 277 279 264 279 q 429 279 327 279 q 429 336 429 298 q 277 336 378 336 q 256 345 264 336 q 248 366 248 354 q 248 433 248 389 q 256 454 248 446 q 277 464 264 464 q 361 464 305 464 q 49 956 258 628 q 43 971 43 963 q 47 986 43 979 q 73 1001 56 1001 q 269 1001 138 1001 q 283 997 277 1001 q 293 987 289 994 q 614 464 400 812 q 707 464 661 464 q 798 464 753 464 m 880 1001 q 906 985 898 1001 q 910 971 910 978 q 905 955 910 963 q 751 712 853 873 q 727 699 743 699 q 703 712 712 699 q 605 869 670 764 q 600 886 600 876 q 605 901 600 894 q 659 987 623 929 q 669 997 663 993 q 682 1001 675 1001 q 781 1001 732 1001 q 880 1001 831 1001 z "},"":{"ha":339,"x_min":42,"x_max":297,"o":"m 66 983 q 100 1065 66 1031 q 182 1099 134 1099 q 263 1065 231 1099 q 297 983 297 1031 q 297 977 297 979 q 263 876 297 930 q 164 799 227 819 q 126 788 144 792 q 88 781 109 783 q 83 781 85 781 q 72 781 79 781 q 52 783 62 783 q 45 785 47 783 q 42 789 43 787 q 42 793 42 791 q 42 796 42 795 q 46 800 43 799 q 95 860 85 831 q 84 922 104 888 q 71 951 76 936 q 66 983 66 967 z "},"":{"ha":339,"x_min":-118,"x_max":469,"o":"m 427 924 q 416 861 407 890 q 467 802 426 833 q 469 796 468 799 q 469 793 469 795 q 469 791 469 792 q 467 785 469 788 q 461 783 464 784 q 439 783 450 783 q 425 783 429 783 q 385 788 403 784 q 349 799 368 792 q 248 878 286 819 q 214 985 212 935 q 248 1066 214 1032 q 330 1100 282 1100 q 411 1066 377 1100 q 445 985 445 1032 q 441 952 445 967 q 427 924 435 937 m 96 922 q 85 860 76 888 q 134 800 95 831 q 138 796 137 799 q 138 789 138 793 q 134 785 137 787 q 129 783 132 783 q 107 781 118 783 q 98 781 102 781 q 92 781 95 781 q 54 788 72 783 q 16 799 37 792 q -83 876 -46 819 q -118 977 -118 930 q -118 983 -118 981 q -84 1065 -118 1031 q -3 1099 -50 1099 q 80 1065 46 1099 q 114 983 114 1031 q 109 951 114 967 q 96 922 104 936 z "},"":{"ha":671,"x_min":42,"x_max":629,"o":"m 66 985 q 100 1066 66 1032 q 182 1100 134 1100 q 263 1066 231 1100 q 297 985 297 1032 q 263 878 300 935 q 164 799 227 819 q 126 788 144 792 q 88 783 109 784 q 72 783 83 783 q 52 783 62 783 q 45 785 47 784 q 42 791 43 788 q 42 793 42 792 q 42 796 42 795 q 46 802 43 799 q 95 861 85 833 q 84 924 104 890 q 71 952 76 937 q 66 985 66 967 m 399 983 q 433 1065 399 1031 q 514 1099 467 1099 q 595 1065 562 1099 q 629 983 629 1031 q 629 977 629 981 q 594 876 629 930 q 495 799 557 819 q 458 788 476 792 q 419 781 439 783 q 415 781 418 781 q 404 781 411 781 q 382 783 393 783 q 377 785 380 783 q 374 789 374 787 q 374 796 373 793 q 377 800 374 799 q 427 860 418 831 q 415 922 437 888 q 403 951 407 936 q 399 983 399 967 z "},"":{"ha":1076,"x_min":42,"x_max":1034,"o":"m 806 243 q 830 248 818 251 q 852 233 844 245 q 929 113 878 193 q 933 88 936 100 q 918 68 930 75 q 846 28 884 45 q 768 1 808 11 q 760 0 764 0 q 742 7 750 0 q 730 30 730 15 q 730 184 730 81 q 735 202 730 194 q 749 213 741 210 q 779 227 764 218 q 806 243 792 233 m 484 991 q 510 987 498 996 q 522 963 522 978 q 522 803 522 910 q 518 787 522 795 q 505 776 513 780 q 441 734 471 760 q 388 677 411 709 q 617 677 465 677 q 639 669 629 677 q 648 647 648 659 q 648 578 648 624 q 639 556 648 566 q 617 548 629 548 q 336 548 524 548 q 332 524 334 536 q 332 500 332 513 q 332 476 332 488 q 336 453 334 464 q 617 453 430 453 q 639 444 629 453 q 648 422 648 434 q 648 354 648 399 q 639 332 648 340 q 617 323 629 323 q 388 323 541 323 q 441 266 411 292 q 505 224 469 241 q 518 213 513 220 q 522 197 522 206 q 522 38 522 144 q 510 14 522 22 q 484 8 498 4 q 282 127 369 45 q 155 323 195 212 q 73 323 127 323 q 52 332 61 323 q 42 354 42 340 q 42 422 42 377 q 52 444 42 434 q 73 453 61 453 q 126 453 91 453 q 123 476 125 464 q 123 500 123 488 q 123 524 123 513 q 126 548 125 536 q 73 548 109 548 q 52 556 61 548 q 42 578 42 566 q 42 647 42 601 q 52 669 42 659 q 73 677 61 677 q 155 677 100 677 q 282 872 195 789 q 484 991 369 955 m 768 1000 q 909 939 844 979 q 1025 841 975 898 q 1034 821 1034 833 q 1034 819 1034 821 q 1023 799 1032 807 q 913 700 986 765 q 891 692 903 692 q 869 703 879 693 q 815 751 846 730 q 750 787 785 773 q 735 798 741 789 q 730 815 730 806 q 730 970 730 867 q 742 994 730 985 q 760 1001 750 1000 q 768 1000 764 1001 z "}}}
